<?xml version="1.0" encoding="UTF-8" standalone="yes"?>
<svg xmlns="http://www.w3.org/2000/svg" xmlns:xlink="http://www.w3.org/1999/xlink" width="2291.490pt" height="1711.212pt" version="1.1" viewBox="568.203 242.553 2291.490 1711.212">
  <!--
	Exported with Concepts: Smarter Sketching
	Version: 1053 on iOS 15.2
	https://concepts.app/
	-->
  <title>Untitled</title>
  <desc>Drawing exported from Concepts: Smarter Sketching</desc>
  <defs></defs>
  <g id="Pen" opacity="1.000">
    <path id="STROKE_c473fdce-84f6-4f52-aff4-1cb41ec101f6" opacity="1.000" fill="none" stroke="#90d94b" stroke-width="8.050" stroke-opacity="1.000" stroke-linecap="round" stroke-linejoin="round" d="M 1155.607 662.209 Q 1155.600 664.905 1155.543 686.168 Q 1155.508 699.039 1155.478 710.126 Q 1155.440 723.941 1155.413 734.084 Q 1155.378 746.939 1155.348 758.043 Q 1155.314 770.607 1155.283 782.001 Q 1155.247 795.672 1155.219 805.959 Q 1155.183 819.159 1155.154 829.918 Q 1155.120 842.538 1155.089 853.876 Q 1155.050 868.454 1155.024 877.834 Q 1154.985 892.394 1154.960 901.793 Q 1154.924 914.831 1154.895 925.751 Q 1154.862 938.028 1154.830 949.709 Q 1154.794 962.911 1154.765 973.668 Q 1154.731 986.489 1154.700 997.626 Q 1154.661 1012.314 1154.636 1021.584 Q 1154.598 1035.421 1154.571 1045.542 Q 1154.535 1058.891 1154.506 1069.501 Q 1154.469 1083.212 1154.441 1093.459 Q 1154.401 1108.385 1154.377 1117.417 Q 1154.339 1131.202 1154.312 1141.376 Q 1154.278 1153.819 1154.247 1165.334 Q 1154.211 1178.611 1154.182 1189.292 Q 1154.144 1203.512 1154.118 1213.251 Q 1154.082 1226.369 1154.053 1237.209 Q 1154.020 1249.328 1153.988 1261.167 Q 1153.955 1273.467 1153.923 1285.126 Q 1153.888 1298.260 1153.858 1309.084 Q 1153.822 1322.672 1153.794 1333.042 Q 1153.753 1348.134 1153.729 1357.001 Q 1153.691 1371.132 1153.664 1380.959 Q 1153.630 1393.750 1153.599 1404.917 Q 1153.562 1418.832 1153.535 1428.876 Q 1153.498 1442.302 1153.470 1452.834 Q 1153.432 1466.822 1153.405 1476.792 Q 1153.365 1491.614 1153.340 1500.751 Q 1153.306 1513.489 1153.276 1524.709 Q 1153.240 1537.719 1153.211 1548.667 Q 1153.176 1561.660 1153.146 1572.626 Q 1153.111 1585.691 1153.081 1596.584 Q 1153.044 1610.212 1153.016 1620.542 Q 1152.983 1633.029 1152.952 1644.500 Q 1152.955 1643.345 1153.016 1620.542 Q 1153.052 1607.294 1153.081 1596.584 Q 1153.117 1583.154 1153.146 1572.626 Q 1153.182 1559.214 1153.211 1548.667 Q 1153.243 1536.578 1153.276 1524.709 Q 1153.313 1510.752 1153.340 1500.751 Q 1153.378 1486.812 1153.405 1476.792 Q 1153.442 1463.234 1153.470 1452.834 Q 1153.503 1440.707 1153.535 1428.876 Q 1153.579 1412.616 1153.599 1404.917 Q 1153.632 1392.717 1153.664 1380.959 Q 1153.698 1368.305 1153.729 1357.001 Q 1153.770 1341.991 1153.794 1333.042 Q 1153.835 1317.670 1153.858 1309.084 Q 1153.899 1293.910 1153.923 1285.126 Q 1153.961 1271.202 1153.988 1261.167 Q 1154.026 1247.243 1154.053 1237.209 Q 1154.092 1222.650 1154.118 1213.251 Q 1154.150 1201.156 1154.182 1189.292 Q 1154.221 1175.132 1154.247 1165.334 Q 1154.287 1150.720 1154.312 1141.376 Q 1154.348 1127.994 1154.377 1117.417 Q 1154.416 1102.911 1154.441 1093.459 Q 1154.481 1078.681 1154.506 1069.501 Q 1154.549 1053.707 1154.571 1045.542 Q 1154.608 1031.833 1154.636 1021.584 Q 1154.669 1009.306 1154.700 997.626 Q 1154.736 984.514 1154.765 973.668 Q 1154.806 958.779 1154.830 949.709 Q 1154.863 937.376 1154.895 925.751 Q 1154.931 912.203 1154.960 901.793 Q 1154.995 888.625 1155.024 877.834 Q 1155.063 863.452 1155.089 853.876 Q 1155.128 839.602 1155.154 829.918 Q 1155.190 816.604 1155.219 805.959 Q 1155.252 793.696 1155.283 782.001 Q 1155.318 769.284 1155.348 758.043 Q 1155.382 745.525 1155.413 734.084 Q 1155.448 721.204 1155.478 710.126 Q 1155.513 697.064 1155.543 686.168 Q 1155.575 674.157 1155.607 662.209 Q 1155.625 655.780 1155.625 655.580 L 1155.607 662.209 Z"></path>
    <path id="STROKE_f92b49af-e36c-47c2-abcd-bfc0aa18ec01" opacity="1.000" fill="none" stroke="#90d94b" stroke-width="5.400" stroke-opacity="1.000" stroke-linecap="round" stroke-linejoin="round" d="M 1191.611 842.691 Q 1191.616 843.513 1191.780 870.864 Q 1191.884 888.059 1191.973 902.850 Q 1192.069 918.872 1192.165 934.835 Q 1192.263 951.188 1192.357 966.821 Q 1192.457 983.504 1192.549 998.807 Q 1192.646 1014.990 1192.741 1030.792 Q 1192.838 1046.948 1192.934 1062.778 Q 1193.030 1078.815 1193.126 1094.763 Q 1209.318 1094.666 1225.112 1094.571 Q 1242.099 1094.469 1257.097 1094.379 Q 1273.980 1094.278 1289.083 1094.187 Q 1305.958 1094.085 1321.068 1093.995 Q 1338.611 1093.889 1353.054 1093.802 Q 1369.176 1093.706 1385.040 1093.610 Q 1401.989 1093.508 1417.025 1093.418 Q 1433.485 1093.319 1449.011 1093.226 Q 1465.238 1093.128 1480.996 1093.034 Q 1498.372 1092.929 1512.982 1092.841 Q 1529.997 1092.739 1544.968 1092.649 Q 1561.493 1092.550 1576.953 1092.457 Q 1593.118 1092.360 1608.939 1092.265 Q 1625.578 1092.165 1640.924 1092.073 Q 1657.203 1091.975 1672.910 1091.880 Q 1689.277 1091.782 1704.896 1091.688 Q 1721.608 1091.588 1736.881 1091.496 Q 1736.781 1074.830 1736.689 1059.510 Q 1736.588 1042.761 1736.497 1027.525 Q 1736.393 1010.198 1736.305 995.539 Q 1736.208 979.519 1736.112 963.554 Q 1736.005 945.700 1735.920 931.568 Q 1735.822 915.246 1735.728 899.582 Q 1735.631 883.401 1735.536 867.597 Q 1735.434 850.726 1735.344 835.611 Q 1718.433 835.713 1703.358 835.803 Q 1687.033 835.901 1671.372 835.995 Q 1654.605 836.096 1639.387 836.188 Q 1623.077 836.286 1607.401 836.380 Q 1589.943 836.485 1575.416 836.572 Q 1557.869 836.677 1543.430 836.764 Q 1527.175 836.862 1511.444 836.956 Q 1494.041 837.061 1479.459 837.149 Q 1463.123 837.247 1447.473 837.341 Q 1430.310 837.444 1415.488 837.533 Q 1399.391 837.630 1383.502 837.725 Q 1367.060 837.824 1351.516 837.918 Q 1334.858 838.018 1319.531 838.110 Q 1303.232 838.208 1287.545 838.302 Q 1271.030 838.401 1255.559 838.494 Q 1239.180 838.593 1223.574 838.686 Q 1212.306 838.754 1207.973 838.780 Q 1203.639 838.806 1191.588 838.879 "></path>
    <path id="STROKE_33f4b293-f6c7-4060-a310-a4f7b4f3532e" opacity="1.000" fill="none" stroke="#90d94b" stroke-width="5.400" stroke-opacity="1.000" stroke-linecap="round" stroke-linejoin="round" d="M 1193.126 1094.763 L 1193.318 1126.749 Q 1193.420 1143.783 1193.510 1158.735 Q 1193.613 1175.875 1193.702 1190.720 Q 1193.801 1207.137 1193.895 1222.706 Q 1193.996 1239.565 1194.087 1254.691 Q 1194.186 1271.164 1194.279 1286.677 Q 1194.382 1303.807 1194.471 1318.663 Q 1194.575 1335.930 1194.663 1350.648 Q 1194.762 1367.058 1194.856 1382.634 Q 1194.957 1399.508 1195.048 1414.620 Q 1211.368 1414.521 1227.033 1414.427 Q 1244.278 1414.324 1259.019 1414.235 Q 1275.196 1414.138 1291.005 1414.043 Q 1307.880 1413.942 1322.990 1413.851 Q 1339.602 1413.751 1354.976 1413.658 Q 1372.864 1413.551 1386.961 1413.466 Q 1404.842 1413.359 1418.947 1413.274 Q 1435.760 1413.173 1450.933 1413.082 Q 1467.257 1412.984 1482.918 1412.890 Q 1500.647 1412.783 1514.904 1412.698 Q 1530.988 1412.601 1546.889 1412.505 Q 1565.278 1412.395 1578.875 1412.313 Q 1596.325 1412.208 1610.861 1412.121 Q 1628.656 1412.014 1642.846 1411.929 Q 1659.125 1411.831 1674.832 1411.736 Q 1691.906 1411.634 1706.818 1411.544 Q 1722.952 1411.447 1738.803 1411.352 Q 1738.732 1399.527 1738.711 1395.953 Q 1738.689 1392.380 1738.611 1379.366 Q 1738.513 1362.983 1738.419 1347.381 Q 1738.319 1330.779 1738.227 1315.395 Q 1738.128 1298.934 1738.034 1283.410 Q 1737.934 1266.618 1737.842 1251.424 Q 1737.735 1233.607 1737.650 1219.438 Q 1737.550 1202.816 1737.458 1187.453 Q 1737.357 1170.612 1737.266 1155.467 Q 1737.169 1139.350 1737.073 1123.482 Q 1736.975 1107.034 1736.881 1091.496 Q 1726.264 1091.560 1724.755 1091.569 "></path>
    <path id="STROKE_84864234-cf51-4d11-b2e3-9bce97170464" opacity="1.000" fill="none" stroke="#90d94b" stroke-width="5.400" stroke-opacity="1.000" stroke-linecap="round" stroke-linejoin="round" d="M 1195.048 1414.620 L 1198.526 1414.599 L 1195.048 1414.620 Q 1195.144 1430.636 1195.240 1446.605 Q 1195.346 1464.216 1195.432 1478.591 Q 1195.530 1494.819 1195.625 1510.576 Q 1195.726 1527.472 1195.817 1542.562 Q 1195.915 1558.980 1196.009 1574.548 Q 1196.107 1590.825 1196.201 1606.533 Q 1196.299 1622.895 1196.393 1638.519 Q 1196.491 1654.874 1196.585 1670.504 Q 1213.002 1670.406 1228.571 1670.312 Q 1246.843 1670.202 1260.557 1670.120 Q 1277.793 1670.016 1292.542 1669.928 Q 1310.092 1669.822 1324.528 1669.736 Q 1340.690 1669.638 1356.513 1669.543 Q 1373.695 1669.440 1388.499 1669.351 Q 1406.026 1669.246 1420.485 1669.159 Q 1437.523 1669.057 1452.470 1668.967 Q 1469.725 1668.863 1484.456 1668.775 Q 1501.479 1668.672 1516.442 1668.582 Q 1532.879 1668.484 1548.427 1668.390 Q 1564.504 1668.293 1580.413 1668.198 Q 1597.059 1668.098 1612.398 1668.006 Q 1629.134 1667.905 1644.384 1667.813 Q 1660.887 1667.714 1676.370 1667.621 Q 1692.384 1667.525 1708.355 1667.429 Q 1724.362 1667.333 1740.341 1667.237 L 1730.077 1667.299 Q 1730.430 1667.296 1740.341 1667.237 Q 1748.281 1667.189 1748.409 1667.188 L 1740.341 1667.237 Q 1740.241 1650.553 1740.149 1635.251 Q 1740.046 1618.125 1739.957 1603.266 Q 1739.856 1586.616 1739.764 1571.280 Q 1739.667 1554.995 1739.572 1539.294 Q 1739.469 1522.096 1739.380 1507.309 Q 1739.283 1491.193 1739.188 1475.323 Q 1739.084 1458.070 1738.995 1443.338 Q 1738.895 1426.561 1738.803 1411.352 Q 1722.342 1411.451 1706.818 1411.544 Q 1690.493 1411.642 1674.832 1411.736 Q 1658.065 1411.837 1642.846 1411.929 Q 1626.440 1412.027 1610.861 1412.121 Q 1594.334 1412.220 1578.875 1412.313 Q 1562.709 1412.410 1546.889 1412.505 Q 1529.800 1412.608 1514.904 1412.698 Q 1497.501 1412.802 1482.918 1412.890 Q 1465.395 1412.995 1450.933 1413.082 Q 1433.417 1413.187 1418.947 1413.274 Q 1402.626 1413.372 1386.961 1413.466 Q 1369.846 1413.569 1354.976 1413.658 Q 1338.221 1413.759 1322.990 1413.851 Q 1305.890 1413.953 1291.005 1414.043 Q 1274.265 1414.144 1259.019 1414.235 Q 1242.993 1414.331 1227.033 1414.427 Q 1210.662 1414.526 1195.048 1414.620 "></path>
    <path id="STROKE_764ef362-46b7-4ddf-80ba-e80d9746b378" opacity="1.000" fill="none" stroke="#90d94b" stroke-width="5.400" stroke-opacity="1.000" stroke-linecap="round" stroke-linejoin="round" d="M 1196.585 1670.504 L 1196.573 1668.466 L 1196.585 1670.504 L 1196.559 1666.165 L 1196.585 1670.504 Q 1196.687 1687.437 1196.777 1702.490 Q 1196.879 1719.381 1196.970 1734.476 Q 1197.070 1751.184 1197.162 1766.461 Q 1197.264 1783.477 1197.354 1798.447 Q 1197.455 1815.164 1197.546 1830.432 Q 1197.645 1846.852 1197.739 1862.418 Q 1197.837 1878.889 1197.931 1894.404 Q 1198.035 1911.785 1198.123 1926.389 Q 1215.170 1926.287 1230.109 1926.197 Q 1247.489 1926.093 1262.094 1926.005 Q 1279.309 1925.901 1294.080 1925.813 Q 1310.263 1925.715 1326.065 1925.620 Q 1344.378 1925.510 1358.051 1925.428 Q 1375.599 1925.323 1390.037 1925.236 Q 1406.919 1925.135 1422.022 1925.044 Q 1438.971 1924.942 1454.008 1924.852 Q 1472.255 1924.742 1485.994 1924.659 Q 1502.843 1924.558 1517.979 1924.467 Q 1535.029 1924.365 1549.965 1924.275 Q 1567.680 1924.169 1581.950 1924.083 Q 1600.465 1923.972 1613.936 1923.891 Q 1632.151 1923.781 1645.922 1923.698 Q 1662.406 1923.599 1677.907 1923.506 Q 1694.226 1923.408 1709.893 1923.314 Q 1726.511 1923.214 1741.879 1923.122 Q 1741.757 1902.845 1741.686 1891.136 Q 1741.759 1903.224 1741.769 1904.891 Q 1741.763 1903.836 1741.686 1891.136 Q 1741.583 1873.924 1741.494 1859.151 Q 1741.393 1842.376 1741.302 1827.165 Q 1741.190 1808.555 1741.110 1795.179 Q 1741.005 1777.791 1740.917 1763.194 Q 1740.820 1746.940 1740.725 1731.208 Q 1740.626 1714.648 1740.533 1699.222 Q 1740.434 1682.728 1740.341 1667.237 Q 1729.952 1667.299 1708.355 1667.429 Q 1691.590 1667.530 1676.370 1667.621 Q 1658.339 1667.730 1644.384 1667.813 Q 1628.217 1667.911 1612.398 1668.006 Q 1596.265 1668.103 1580.413 1668.198 Q 1564.079 1668.296 1548.427 1668.390 Q 1531.294 1668.493 1516.442 1668.582 Q 1499.009 1668.687 1484.456 1668.775 Q 1467.423 1668.877 1452.470 1668.967 Q 1435.503 1669.069 1420.485 1669.159 Q 1403.218 1669.263 1388.499 1669.351 Q 1371.998 1669.450 1356.513 1669.543 Q 1339.945 1669.643 1324.528 1669.736 Q 1308.126 1669.834 1292.542 1669.928 Q 1275.341 1670.031 1260.557 1670.120 Q 1243.655 1670.221 1228.571 1670.312 Q 1212.302 1670.410 1196.585 1670.504 Q 1196.688 1687.693 1196.777 1702.490 Q 1196.875 1718.660 1196.970 1734.476 Q 1197.076 1752.138 1197.162 1766.461 Q 1197.258 1782.500 1197.354 1798.447 Q 1197.452 1814.676 1197.546 1830.432 Q 1197.643 1846.597 1197.739 1862.418 Q 1197.837 1878.773 1197.931 1894.404 Q 1197.991 1904.433 1198.019 1909.062 Q 1198.047 1913.690 1198.123 1926.389 L 1198.119 1925.688 L 1198.123 1926.389 "></path>
    <path id="STROKE_18868819-bd72-4068-8ea6-de5f0e752e9b" opacity="1.000" fill="none" stroke="#90d94b" stroke-width="5.400" stroke-opacity="1.000" stroke-linecap="round" stroke-linejoin="round" d="M 1421.770 890.704 L 1420.570 893.373 Q 1420.889 895.863 1419.454 907.668 Q 1418.019 919.474 1417.229 941.024 Q 1416.439 962.575 1416.611 973.984 Q 1416.784 985.393 1417.139 994.029 Q 1417.494 1002.664 1418.929 1011.437 Q 1420.365 1020.210 1422.886 1027.618 L 1423.035 1027.651 Q 1423.924 1026.525 1423.907 1026.520 Q 1423.889 1026.514 1425.203 1022.987 Q 1426.517 1019.459 1427.545 1016.393 "></path>
    <path id="STROKE_90d37d3b-9946-4d8b-8fc5-fbfe993502e6" opacity="1.000" fill="none" stroke="#90d94b" stroke-width="5.400" stroke-opacity="1.000" stroke-linecap="round" stroke-linejoin="round" d="M 1353.158 1169.645 Q 1353.907 1169.436 1354.682 1169.133 Q 1355.457 1168.830 1356.263 1168.635 Q 1357.068 1168.439 1363.994 1167.563 Q 1370.919 1166.686 1381.023 1166.678 Q 1391.126 1166.670 1400.745 1168.614 Q 1410.363 1170.558 1417.163 1173.914 Q 1423.963 1177.269 1428.640 1181.540 Q 1433.317 1185.811 1436.081 1191.595 Q 1438.844 1197.378 1439.106 1206.587 Q 1439.367 1215.796 1435.480 1227.138 Q 1431.594 1238.481 1423.543 1251.984 Q 1415.493 1265.486 1408.334 1274.819 Q 1401.175 1284.151 1394.925 1291.218 Q 1388.674 1298.285 1381.584 1305.492 Q 1374.493 1312.698 1370.840 1316.379 Q 1367.186 1320.059 1365.740 1321.857 Q 1364.294 1323.656 1364.410 1323.942 Q 1364.526 1324.227 1377.051 1326.264 Q 1389.577 1328.301 1406.386 1327.376 Q 1423.196 1326.450 1455.674 1323.941 Q 1488.152 1321.431 1504.619 1320.634 Q 1521.086 1319.837 1528.223 1319.799 Q 1535.360 1319.761 1540.369 1319.758 Q 1545.377 1319.754 1558.188 1320.993 Q 1558.499 1321.148 1556.928 1321.204 Q 1555.357 1321.260 1553.483 1320.891 Q 1551.608 1320.521 1550.142 1319.941 Q 1548.676 1319.362 1541.938 1316.595 "></path>
    <path id="STROKE_2074940f-269a-4664-b02d-c626bbba8c02" opacity="1.000" fill="none" stroke="#90d94b" stroke-width="5.400" stroke-opacity="1.000" stroke-linecap="round" stroke-linejoin="round" d="M 1387.272 1469.774 Q 1387.781 1469.604 1390.896 1465.657 Q 1391.167 1465.308 1398.247 1462.459 Q 1405.327 1459.610 1418.322 1458.372 Q 1431.316 1457.134 1438.480 1458.314 Q 1445.644 1459.495 1449.229 1461.452 Q 1452.814 1463.409 1454.315 1464.973 Q 1455.816 1466.538 1456.777 1468.794 Q 1457.739 1471.050 1457.609 1474.107 Q 1457.478 1477.163 1446.925 1491.069 Q 1436.373 1504.974 1421.037 1517.560 Q 1405.701 1530.146 1394.991 1542.751 Q 1395.425 1543.441 1402.880 1545.842 Q 1410.336 1548.243 1417.189 1549.831 Q 1424.042 1551.419 1429.165 1553.855 Q 1434.288 1556.292 1436.835 1558.761 Q 1439.383 1561.231 1440.619 1564.500 Q 1441.854 1567.769 1440.014 1572.962 Q 1438.173 1578.155 1433.861 1582.914 Q 1429.548 1587.674 1423.113 1592.086 Q 1416.678 1596.499 1410.870 1598.578 Q 1405.062 1600.658 1399.252 1601.613 Q 1398.299 1601.459 1395.868 1601.592 "></path>
    <path id="STROKE_fe1561c8-740f-4e6a-8fa3-916418f4354f" opacity="1.000" fill="none" stroke="#90d94b" stroke-width="5.400" stroke-opacity="1.000" stroke-linecap="round" stroke-linejoin="round" d="M 1381.177 1712.752 L 1376.977 1717.293 Q 1376.656 1718.039 1370.198 1730.171 Q 1363.740 1742.304 1358.290 1754.471 Q 1352.840 1766.638 1348.548 1778.711 Q 1344.256 1790.784 1343.619 1797.418 Q 1342.981 1804.052 1344.512 1808.259 Q 1345.481 1809.337 1353.951 1810.023 Q 1362.422 1810.709 1370.672 1808.372 Q 1378.923 1806.035 1386.151 1803.340 Q 1393.380 1800.645 1407.386 1795.406 Q 1421.392 1790.167 1431.776 1786.993 Q 1442.160 1783.820 1453.776 1781.788 Q 1465.392 1779.756 1475.108 1779.372 Q 1484.823 1778.988 1489.350 1779.081 Q 1493.878 1779.174 1497.197 1779.420 Q 1500.517 1779.666 1503.905 1780.723 Q 1504.248 1780.866 1504.370 1777.963 Q 1504.492 1775.061 1504.017 1772.531 "></path>
    <path id="STROKE_00e2c1d8-0afc-45fb-a606-52992f3dbb7c" opacity="1.000" fill="none" stroke="#90d94b" stroke-width="5.400" stroke-opacity="1.000" stroke-linecap="round" stroke-linejoin="round" d="M 1439.105 1707.542 L 1435.377 1711.953 Q 1434.573 1713.343 1428.577 1735.596 Q 1422.581 1757.850 1420.393 1771.692 Q 1418.206 1785.534 1416.089 1806.045 Q 1413.971 1826.556 1413.505 1838.912 Q 1413.040 1851.269 1413.909 1869.042 Q 1413.782 1869.295 1414.286 1870.601 "></path>
    <path id="STROKE_02e0f87b-c91f-4e08-929e-55a9b4e39e60" opacity="1.000" fill="none" stroke="#000000" stroke-width="3.500" stroke-opacity="1.000" stroke-linecap="round" stroke-linejoin="round" d="M 1865.531 950.036 Q 1865.531 950.560 1865.501 928.919 L 1865.522 944.085 L 1865.522 943.792 Q 1865.523 944.554 1865.555 967.670 Q 1865.583 987.702 1865.609 1006.420 Q 1865.638 1027.508 1865.663 1045.170 Q 1865.693 1066.846 1865.717 1083.921 Q 1865.745 1104.658 1865.771 1122.671 Q 1865.798 1142.765 1865.825 1161.422 Q 1865.853 1182.131 1865.879 1200.172 Q 1865.908 1221.146 1865.932 1238.923 Q 1865.958 1257.366 1865.986 1277.673 Q 1883.901 1277.644 1901.658 1277.615 Q 1920.524 1277.584 1937.330 1277.556 Q 1955.215 1277.527 1973.002 1277.498 Q 1991.026 1277.468 2008.675 1277.439 L 1997.632 1277.457 Q 1999.473 1277.454 1999.293 1277.454 Q 2000.790 1277.452 2008.675 1277.439 Q 2008.651 1260.239 2008.621 1238.689 Q 2008.590 1216.330 2008.567 1199.938 Q 2008.534 1176.533 2008.513 1161.188 Q 2008.485 1141.182 2008.459 1122.437 Q 2008.430 1101.522 2008.405 1083.687 Q 2008.377 1063.563 2008.351 1044.936 Q 2008.322 1023.903 2008.297 1006.186 Q 2008.268 985.475 2008.243 967.435 Q 2008.215 947.368 2008.189 928.685 Q 1989.421 928.716 1972.517 928.743 Q 1953.455 928.775 1936.845 928.802 Q 1918.802 928.831 1901.173 928.860 Q 1882.837 928.891 1865.501 928.919 "></path>
    <path id="STROKE_cf73f311-8e06-47f9-a863-103cbd66a4d4" opacity="1.000" fill="none" stroke="#000000" stroke-width="8.622" stroke-opacity="1.000" stroke-linecap="round" stroke-linejoin="round" d="M 2121.912 1647.657 L 2121.900 1639.943 Q 2121.871 1619.360 2121.843 1599.169 Q 2121.810 1575.069 2121.787 1558.395 Q 2121.752 1533.524 2121.730 1517.621 Q 2121.698 1494.846 2121.673 1476.846 Q 2121.639 1452.159 2121.617 1436.072 Q 2121.582 1410.922 2121.560 1395.298 Q 2121.522 1368.419 2121.503 1354.524 Q 2121.471 1331.192 2121.446 1313.750 Q 2121.417 1292.854 2121.390 1272.976 Q 2121.359 1250.660 2121.333 1232.201 Q 2121.298 1206.863 2121.276 1191.427 Q 2121.247 1170.437 2121.220 1150.653 Q 2121.188 1127.596 2121.163 1109.879 Q 2121.132 1087.469 2121.106 1069.105 Q 2121.072 1044.627 2121.050 1028.330 Q 2121.016 1004.038 2120.993 987.556 Q 2120.961 964.898 2120.936 946.782 Q 2120.907 925.912 2120.879 906.008 Q 2120.849 884.366 2120.823 865.234 Q 2120.793 843.931 2120.766 824.460 Q 2120.736 802.539 2120.709 783.686 Q 2120.678 761.456 2120.653 742.912 Q 2120.624 722.470 2120.596 702.137 Q 2120.581 691.195 2120.580 690.856 L 2120.596 702.137 L 2120.596 702.137 Q 2120.603 706.725 2120.653 742.912 Q 2120.683 764.818 2120.709 783.686 Q 2120.742 807.196 2120.766 824.460 Q 2120.797 846.336 2120.823 865.234 Q 2120.853 886.618 2120.879 906.008 Q 2120.912 929.274 2120.936 946.782 Q 2120.967 969.247 2120.993 987.556 Q 2121.023 1009.034 2121.050 1028.330 Q 2121.084 1053.140 2121.106 1069.105 Q 2121.141 1093.884 2121.163 1109.879 Q 2121.194 1132.068 2121.220 1150.653 Q 2121.249 1171.547 2121.276 1191.427 Q 2121.308 1213.895 2121.333 1232.201 Q 2121.363 1254.022 2121.390 1272.976 Q 2121.425 1297.974 2121.446 1313.750 Q 2121.479 1337.299 2121.503 1354.524 Q 2121.535 1377.241 2121.560 1395.298 Q 2121.593 1418.632 2121.617 1436.072 Q 2121.652 1461.474 2121.673 1476.846 Q 2121.706 1500.305 2121.730 1517.621 Q 2121.760 1538.797 2121.787 1558.395 Q 2121.818 1580.991 2121.843 1599.169 Q 2121.877 1623.370 2121.900 1639.943 L 2121.912 1647.674 "></path>
    <path id="STROKE_f5f848fb-a70c-48df-9b59-16c6a398ac0b" opacity="1.000" fill="none" stroke="#000000" stroke-width="3.500" stroke-opacity="1.000" stroke-linecap="round" stroke-linejoin="round" d="M 1901.335 1045.112 L 1901.335 1045.112 "></path>
    <path id="STROKE_9bf67965-1636-438a-a5e3-41d5a5726b24" opacity="1.000" fill="none" stroke="#000000" stroke-width="3.500" stroke-opacity="1.000" stroke-linecap="round" stroke-linejoin="round" d="M 1865.663 1045.170 Q 1865.970 1045.170 1866.682 1045.169 L 1865.663 1045.170 Q 1882.487 1045.143 1901.335 1045.112 Q 1922.000 1045.078 1937.007 1045.053 Q 1955.230 1045.023 1972.679 1044.995 Q 1991.638 1044.964 2008.351 1044.936 Q 2008.378 1064.729 2008.405 1083.687 Q 2008.433 1103.607 2008.459 1122.437 Q 2008.487 1142.435 2008.513 1161.188 Q 1990.176 1161.218 1972.841 1161.246 Q 1954.873 1161.276 1937.169 1161.305 Q 1918.664 1161.335 1901.496 1161.363 Q 1883.297 1161.393 1865.824 1161.422 Q 1865.795 1140.654 1865.770 1122.671 Q 1865.741 1101.776 1865.716 1083.921 Q 1865.689 1064.472 1865.663 1045.170 Q 1884.107 1045.140 1901.335 1045.112 "></path>
    <path id="STROKE_5b91ce82-020d-44c7-8d1e-cb1fef8b451e" opacity="1.000" fill="none" stroke="#000000" stroke-width="3.500" stroke-opacity="1.000" stroke-linecap="round" stroke-linejoin="round" d="M 1865.663 1045.170 Q 1885.609 1045.138 1901.335 1045.112 Q 1919.409 1045.082 1937.007 1045.053 Q 1955.230 1045.023 1972.679 1044.995 Q 1991.606 1044.964 1993.123 1044.961 Q 1992.864 1044.962 1992.151 1044.963 L 2008.351 1044.936 L 1972.679 1044.995 Q 1952.380 1045.028 1937.007 1045.053 Q 1917.984 1045.085 1901.335 1045.112 Q 1882.941 1045.142 1865.663 1045.170 Q 1868.150 1045.166 1869.273 1045.165 L 1865.663 1045.170 Q 1873.743 1045.157 1901.335 1045.112 Q 1919.668 1045.082 1937.007 1045.053 Q 1956.396 1045.021 1972.679 1044.995 L 1964.622 1045.008 L 1972.679 1044.995 L 1963.003 1045.011 L 1972.679 1044.995 L 1961.578 1045.013 L 1972.679 1044.995 L 1960.865 1045.014 L 1972.679 1044.995 Q 1960.153 1045.015 1959.894 1045.016 L 1972.679 1044.995 Q 1959.440 1045.016 1959.181 1045.017 L 1972.679 1044.995 L 1958.728 1045.018 L 1972.679 1044.995 "></path>
    <path id="STROKE_a335b619-1a6a-4866-9919-cff3f440be7d" opacity="1.000" fill="none" stroke="#000000" stroke-width="3.500" stroke-opacity="1.000" stroke-linecap="round" stroke-linejoin="round" d="M 1865.501 928.919 Q 1865.503 930.252 1865.447 890.168 Q 1865.420 870.470 1865.393 851.418 Q 1865.366 831.358 1865.339 812.668 Q 1883.339 812.638 1901.012 812.609 Q 1920.062 812.578 1936.684 812.551 Q 1955.053 812.520 1972.356 812.492 Q 1990.380 812.462 2008.028 812.433 Q 2008.058 834.337 2008.082 851.184 Q 2008.112 872.902 2008.136 889.934 Q 2008.163 909.751 2008.189 928.685 "></path>
    <path id="STROKE_4e02521b-1ed3-4d69-89fa-5b6cdfa8e5b9" opacity="1.000" fill="none" stroke="#000000" stroke-width="3.500" stroke-opacity="1.000" stroke-linecap="round" stroke-linejoin="round" d="M 1865.339 812.668 L 1865.327 803.786 L 1865.339 812.668 Q 1865.369 833.805 1865.393 851.418 Q 1865.421 871.237 1865.447 890.168 Q 1865.475 910.387 1865.501 928.919 Q 1865.500 927.783 1865.447 890.168 Q 1865.419 869.704 1865.393 851.418 Q 1865.366 831.906 1865.339 812.668 "></path>
    <path id="STROKE_b6f85684-b55c-4c31-8b85-07c629b7c670" opacity="1.000" fill="none" stroke="#000000" stroke-width="3.500" stroke-opacity="1.000" stroke-linecap="round" stroke-linejoin="round" d="M 1913.455 837.706 L 1913.384 839.468 Q 1913.104 841.056 1912.879 853.704 Q 1912.653 866.352 1913.107 892.906 Q 1912.782 894.144 1912.479 897.382 "></path>
    <path id="STROKE_f011a660-5ac0-45a5-85fd-030964a52707" opacity="1.000" fill="none" stroke="#000000" stroke-width="3.500" stroke-opacity="1.000" stroke-linecap="round" stroke-linejoin="round" d="M 1890.713 958.405 L 1892.013 958.389 Q 1893.359 957.888 1901.425 958.925 Q 1909.490 959.963 1913.463 961.985 Q 1917.435 964.006 1918.618 965.210 Q 1919.801 966.415 1920.310 967.206 Q 1920.819 967.996 1921.111 969.079 Q 1921.403 970.162 1921.432 971.251 Q 1921.460 972.339 1916.673 980.428 Q 1911.885 988.517 1904.445 997.571 Q 1897.005 1006.625 1896.082 1008.204 Q 1895.159 1009.783 1894.860 1010.731 Q 1894.562 1011.678 1894.666 1013.777 Q 1894.777 1014.742 1902.724 1016.662 Q 1910.672 1018.582 1918.474 1017.992 Q 1926.276 1017.402 1931.955 1016.723 Q 1937.635 1016.044 1942.416 1015.184 Q 1947.197 1014.324 1955.662 1011.620 Q 1955.963 1011.037 1956.158 1010.222 Q 1956.353 1009.408 1956.526 1006.540 "></path>
    <path id="STROKE_83fc930d-ae8a-49af-9adc-718abd715a4f" opacity="1.000" fill="none" stroke="#000000" stroke-width="3.500" stroke-opacity="1.000" stroke-linecap="round" stroke-linejoin="round" d="M 1898.907 1070.471 Q 1901.066 1070.661 1906.786 1070.640 Q 1912.505 1070.620 1936.480 1078.808 Q 1936.693 1079.063 1936.427 1080.411 Q 1936.161 1081.759 1932.001 1087.199 Q 1927.841 1092.640 1913.865 1108.031 Q 1921.073 1114.303 1929.328 1123.394 Q 1929.549 1124.983 1926.043 1131.190 Q 1922.537 1137.397 1919.077 1140.117 Q 1915.616 1142.836 1913.054 1143.965 Q 1910.493 1145.094 1908.344 1145.706 Q 1906.194 1146.317 1904.862 1146.168 Q 1903.529 1146.019 1899.735 1146.833 "></path>
    <path id="STROKE_4865d9fb-d30e-4168-b784-73983763e8d1" opacity="1.000" fill="none" stroke="#000000" stroke-width="3.500" stroke-opacity="1.000" stroke-linecap="round" stroke-linejoin="round" d="M 1904.839 1182.906 L 1904.594 1184.496 L 1904.388 1187.175 Q 1904.542 1188.622 1905.875 1224.812 Q 1906.089 1225.460 1909.464 1227.213 Q 1912.839 1228.966 1915.832 1229.205 Q 1918.824 1229.443 1925.750 1228.206 Q 1932.676 1226.968 1936.141 1225.965 Q 1939.607 1224.963 1944.753 1223.177 Q 1949.898 1221.392 1957.608 1219.172 Q 1957.921 1219.139 1957.897 1218.508 Q 1957.873 1217.878 1957.724 1216.994 Q 1957.575 1216.111 1957.005 1212.474 "></path>
    <path id="STROKE_a2eec66c-acab-4430-994d-cab8263ee260" opacity="1.000" fill="none" stroke="#000000" stroke-width="3.500" stroke-opacity="1.000" stroke-linecap="round" stroke-linejoin="round" d="M 1936.842 1180.406 Q 1935.879 1185.488 1935.789 1186.717 Q 1935.699 1187.947 1935.446 1209.109 Q 1935.193 1230.271 1935.420 1242.117 Q 1935.647 1253.963 1936.368 1260.862 L 1936.962 1267.031 "></path>
    <path id="STROKE_e42a6238-ebfb-4893-97ad-c52f6450a640" opacity="1.000" fill="none" stroke="#90d94b" stroke-width="3.500" stroke-opacity="1.000" stroke-linecap="round" stroke-linejoin="round" d="M 2171.637 899.036 Q 2171.637 898.825 2171.637 892.567 L 2171.637 883.979 Q 2171.637 883.483 2171.637 892.567 Q 2180.211 892.567 2211.017 892.567 Q 2231.287 892.567 2250.395 892.567 Q 2270.175 892.567 2289.773 892.567 Q 2310.093 892.567 2329.152 892.567 Q 2349.643 892.567 2368.531 892.567 Q 2388.820 892.567 2407.909 892.567 Q 2428.323 892.567 2447.288 892.567 Q 2467.872 892.567 2486.666 892.567 Q 2506.724 892.567 2526.045 892.567 Q 2546.228 892.567 2565.424 892.567 Q 2586.102 892.567 2604.803 892.567 Q 2624.768 892.567 2644.181 892.567 Q 2663.993 892.567 2683.560 892.567 L 2682.025 892.567 L 2683.560 892.567 Q 2683.560 914.058 2683.560 935.344 Q 2683.560 916.808 2683.560 914.975 Q 2683.560 917.635 2683.560 917.823 Q 2683.560 918.011 2683.560 917.725 Q 2683.560 921.919 2683.560 920.476 Q 2683.560 923.411 2683.560 935.344 L 2683.560 923.614 Q 2683.560 923.790 2683.560 935.344 Q 2675.388 935.344 2673.306 935.344 Q 2671.224 935.344 2644.181 935.344 Q 2624.444 935.344 2604.803 935.344 Q 2584.058 935.344 2565.424 935.344 Q 2544.880 935.344 2526.045 935.344 Q 2505.703 935.344 2486.667 935.344 Q 2465.688 935.344 2447.288 935.344 Q 2425.302 935.344 2407.909 935.344 Q 2388.123 935.344 2368.531 935.344 Q 2348.109 935.344 2329.152 935.344 Q 2308.420 935.344 2289.773 935.344 Q 2268.068 935.344 2250.395 935.344 Q 2229.693 935.344 2211.017 935.344 Q 2191.212 935.344 2171.637 935.344 Q 2171.637 913.318 2171.637 892.567 "></path>
    <path id="STROKE_9df521fe-6779-4d13-8099-48b416a1a54a" opacity="1.000" fill="none" stroke="#90d94b" stroke-width="3.500" stroke-opacity="1.000" stroke-linecap="round" stroke-linejoin="round" d="M 2171.637 1020.898 L 2171.637 1027.253 L 2171.637 1020.898 Q 2171.637 1031.102 2171.637 1063.675 Q 2192.700 1063.675 2211.017 1063.675 Q 2233.271 1063.675 2250.395 1063.675 Q 2271.101 1063.675 2289.773 1063.675 Q 2311.709 1063.675 2329.153 1063.675 Q 2349.132 1063.675 2368.531 1063.675 Q 2391.510 1063.675 2407.909 1063.675 Q 2429.857 1063.675 2447.288 1063.675 Q 2469.731 1063.675 2486.667 1063.674 Q 2507.236 1063.674 2526.045 1063.674 Q 2549.806 1063.674 2565.424 1063.674 Q 2585.917 1063.674 2604.803 1063.674 Q 2624.926 1063.674 2644.181 1063.674 Q 2664.318 1063.674 2683.560 1063.674 Q 2683.560 1040.264 2683.560 1020.897 Q 2662.134 1020.897 2644.181 1020.897 Q 2623.793 1020.897 2604.803 1020.897 Q 2584.569 1020.897 2565.424 1020.897 Q 2544.880 1020.897 2526.045 1020.897 Q 2505.377 1020.897 2486.667 1020.897 Q 2466.665 1020.898 2447.288 1020.898 Q 2425.488 1020.897 2407.909 1020.898 Q 2386.775 1020.898 2368.531 1020.898 Q 2346.787 1020.898 2329.153 1020.898 Q 2308.094 1020.898 2289.773 1020.898 Q 2269.057 1020.898 2250.395 1020.898 Q 2229.553 1020.898 2211.017 1020.898 Q 2191.667 1020.898 2171.637 1020.898 Z"></path>
    <path id="STROKE_7baf02c0-5ca2-458b-a043-8b14c4be0cc0" opacity="1.000" fill="none" stroke="#90d94b" stroke-width="3.500" stroke-opacity="1.000" stroke-linecap="round" stroke-linejoin="round" d="M 2171.637 1149.229 Q 2171.637 1115.423 2171.637 1106.452 L 2171.637 1116.574 L 2171.637 1106.452 L 2171.637 1149.229 L 2171.637 1130.151 Q 2171.637 1130.327 2171.637 1130.715 Q 2171.637 1130.503 2171.637 1130.327 Q 2171.637 1130.522 2171.637 1149.229 Q 2191.677 1149.229 2211.016 1149.229 Q 2231.227 1149.229 2250.395 1149.228 Q 2273.797 1149.229 2289.773 1149.229 Q 2312.326 1149.229 2329.152 1149.229 Q 2352.338 1149.229 2368.531 1149.228 Q 2392.213 1149.228 2407.910 1149.228 Q 2431.529 1149.228 2447.288 1149.228 Q 2467.547 1149.228 2486.667 1149.228 Q 2508.583 1149.228 2526.045 1149.228 Q 2546.925 1149.228 2565.424 1149.228 Q 2585.265 1149.228 2604.803 1149.228 Q 2624.954 1149.228 2644.181 1149.228 Q 2664.133 1149.228 2683.560 1149.228 Q 2683.560 1132.617 2683.560 1106.451 Q 2663.621 1106.451 2644.181 1106.451 Q 2622.259 1106.451 2604.803 1106.451 Q 2583.221 1106.451 2565.424 1106.451 Q 2544.555 1106.451 2526.045 1106.451 Q 2505.005 1106.451 2486.667 1106.451 Q 2466.199 1106.451 2447.288 1106.452 Q 2427.347 1106.452 2407.909 1106.451 Q 2386.775 1106.451 2368.531 1106.452 Q 2348.295 1106.452 2329.153 1106.452 Q 2307.584 1106.452 2289.773 1106.452 Q 2268.870 1106.452 2250.395 1106.452 Q 2229.553 1106.452 2211.017 1106.452 Q 2190.701 1106.452 2171.637 1106.452 "></path>
    <path id="STROKE_a83e9641-c68b-474d-9645-ab6723491544" opacity="1.000" fill="none" stroke="#90d94b" stroke-width="3.500" stroke-opacity="1.000" stroke-linecap="round" stroke-linejoin="round" d="M 2171.637 1234.782 Q 2171.637 1257.450 2171.637 1277.559 Q 2192.188 1277.559 2211.016 1277.559 Q 2232.993 1277.559 2250.395 1277.559 Q 2271.613 1277.559 2289.773 1277.559 Q 2312.974 1277.559 2329.152 1277.559 Q 2349.132 1277.559 2368.531 1277.559 Q 2390.679 1277.559 2407.910 1277.559 Q 2429.856 1277.559 2447.288 1277.559 Q 2467.873 1277.559 2486.667 1277.559 Q 2506.539 1277.559 2526.045 1277.559 Q 2546.739 1277.559 2565.424 1277.559 Q 2587.677 1277.559 2604.803 1277.559 Q 2626.629 1277.559 2644.181 1277.559 Q 2663.993 1277.559 2683.560 1277.559 Q 2683.560 1254.876 2683.560 1234.782 Q 2663.621 1234.782 2644.181 1234.782 Q 2624.118 1234.782 2604.803 1234.782 Q 2583.732 1234.782 2565.424 1234.782 Q 2545.205 1234.782 2526.045 1234.782 Q 2505.516 1234.782 2486.667 1234.782 Q 2466.850 1234.782 2447.288 1234.782 Q 2427.486 1234.782 2407.910 1234.782 Q 2386.264 1234.782 2368.531 1234.782 Q 2347.045 1234.782 2329.152 1234.782 Q 2307.397 1234.782 2289.773 1234.782 Q 2268.871 1234.782 2250.395 1234.782 Q 2229.368 1234.782 2211.016 1234.782 Q 2191.026 1234.782 2171.637 1234.782 Z"></path>
    <path id="STROKE_0012dfe5-c72c-4731-9060-5f8cff9d040b" opacity="1.000" fill="none" stroke="#90d94b" stroke-width="4.776" stroke-opacity="1.000" stroke-linecap="round" stroke-linejoin="round" d="M 2811.054 859.601 Q 2810.107 861.642 2806.150 875.815 Q 2802.192 889.988 2800.480 899.835 Q 2798.768 909.682 2798.518 922.949 Q 2798.268 936.215 2799.104 943.171 Q 2799.940 950.127 2800.509 952.567 Q 2801.077 955.007 2802.057 956.704 Q 2803.200 948.863 2803.361 944.897 "></path>
    <path id="STROKE_d0ccbe8d-ec75-41cd-9ff2-f31e9001788d" opacity="1.000" fill="none" stroke="#90d94b" stroke-width="4.705" stroke-opacity="1.000" stroke-linecap="round" stroke-linejoin="round" d="M 2772.770 1015.554 L 2773.300 1015.580 Q 2774.382 1015.359 2779.989 1015.702 Q 2785.596 1016.044 2788.330 1016.779 Q 2791.065 1017.514 2792.766 1018.409 Q 2794.467 1019.304 2795.951 1020.706 Q 2797.435 1022.108 2798.737 1025.526 Q 2800.038 1028.943 2799.867 1033.047 Q 2799.696 1037.150 2795.681 1045.296 Q 2791.666 1053.441 2788.219 1057.849 Q 2784.772 1062.257 2782.972 1064.216 Q 2781.172 1066.175 2778.406 1069.165 Q 2775.639 1072.155 2773.968 1074.040 Q 2773.920 1074.221 2776.147 1074.112 Q 2778.375 1074.003 2794.205 1071.153 Q 2810.035 1068.304 2818.615 1067.312 Q 2827.195 1066.321 2829.469 1066.180 Q 2831.742 1066.040 2831.844 1066.126 Q 2831.947 1066.212 2831.601 1066.144 Q 2831.255 1066.076 2830.516 1065.864 Q 2829.776 1065.652 2827.770 1064.668 "></path>
    <path id="STROKE_b6d96611-45ac-4129-9eb3-280a95ba0772" opacity="1.000" fill="none" stroke="#90d94b" stroke-width="3.575" stroke-opacity="1.000" stroke-linecap="round" stroke-linejoin="round" d="M 2775.537 1107.103 L 2777.007 1106.163 Q 2778.118 1105.474 2785.202 1104.211 Q 2792.285 1102.947 2796.396 1103.332 Q 2800.506 1103.717 2802.248 1104.263 Q 2803.989 1104.809 2805.556 1106.116 Q 2807.124 1107.422 2807.428 1109.318 Q 2807.733 1111.213 2798.906 1120.688 Q 2790.078 1130.163 2783.457 1137.284 Q 2783.690 1137.691 2789.458 1137.708 Q 2795.226 1137.725 2801.214 1137.971 Q 2807.202 1138.216 2809.287 1138.865 Q 2811.373 1139.513 2812.185 1140.168 Q 2812.998 1140.824 2813.371 1141.683 Q 2813.745 1142.542 2812.591 1145.696 Q 2811.438 1148.851 2804.564 1154.756 Q 2797.690 1160.661 2791.076 1163.985 Q 2784.462 1167.310 2777.653 1168.740 Q 2777.188 1168.547 2777.083 1166.009 "></path>
    <path id="STROKE_37b276ff-9be2-435f-becd-03cb3b62b2a6" opacity="1.000" fill="none" stroke="#90d94b" stroke-width="3.296" stroke-opacity="1.000" stroke-linecap="round" stroke-linejoin="round" d="M 2774.603 1215.122 Q 2774.367 1216.585 2768.914 1229.961 Q 2763.461 1243.337 2761.115 1250.222 Q 2758.770 1257.106 2758.635 1260.088 Q 2758.500 1263.070 2758.785 1264.307 Q 2759.069 1265.544 2759.769 1266.542 Q 2760.468 1267.541 2763.091 1268.549 Q 2765.714 1269.557 2768.839 1269.721 Q 2771.964 1269.885 2781.526 1268.008 Q 2791.088 1266.130 2799.346 1263.631 Q 2807.604 1261.131 2817.638 1257.570 Q 2827.671 1254.009 2833.637 1250.736 Q 2833.678 1250.732 2832.191 1249.884 Q 2830.704 1249.035 2829.062 1248.218 Q 2827.419 1247.401 2826.727 1247.011 "></path>
    <path id="STROKE_9efc48b2-f8ea-4301-8e90-b5f471bacffd" opacity="1.000" fill="none" stroke="#90d94b" stroke-width="8.442" stroke-opacity="1.000" stroke-linecap="round" stroke-linejoin="round" d="M 2799.946 1218.261 Q 2798.754 1220.239 2795.795 1230.056 Q 2792.837 1239.872 2791.127 1246.911 Q 2789.417 1253.949 2788.572 1257.911 Q 2787.726 1261.874 2785.517 1275.676 Q 2783.308 1289.479 2784.177 1294.748 Q 2785.045 1300.016 2785.302 1300.101 Q 2785.559 1300.187 2785.813 1300.156 Q 2786.067 1300.125 2787.824 1298.992 Q 2789.581 1297.858 2790.527 1297.279 "></path>
    <path id="STROKE_91547f21-793d-4a89-8c0a-d000aafcd7af" opacity="1.000" fill="none" stroke="#000000" stroke-width="7.140" stroke-opacity="1.000" stroke-linecap="round" stroke-linejoin="round" d="M 2156.972 327.751 Q 2156.727 328.088 2152.872 333.952 Q 2149.016 339.816 2145.026 348.092 Q 2141.037 356.367 2138.493 365.322 Q 2135.949 374.276 2135.087 384.266 Q 2134.225 394.256 2134.896 399.636 Q 2135.567 405.017 2137.268 409.592 Q 2138.969 414.167 2141.516 417.552 Q 2144.063 420.936 2148.060 423.707 Q 2152.057 426.477 2158.168 428.078 Q 2164.280 429.680 2171.304 429.305 Q 2178.329 428.930 2186.942 426.039 Q 2195.556 423.147 2200.239 420.594 Q 2204.923 418.040 2206.818 416.771 Q 2208.714 415.502 2212.915 412.150 Q 2217.115 408.798 2221.750 403.963 Q 2226.384 399.127 2229.845 394.285 Q 2233.306 389.443 2235.581 385.205 Q 2237.855 380.967 2239.850 375.258 Q 2241.845 369.548 2242.529 364.025 Q 2243.214 358.502 2243.012 355.467 Q 2242.811 352.432 2241.859 348.700 Q 2240.907 344.969 2238.305 340.257 Q 2235.702 335.544 2232.204 332.020 Q 2228.705 328.496 2225.388 326.413 Q 2222.072 324.331 2218.199 322.790 Q 2214.327 321.248 2211.123 320.462 Q 2207.919 319.675 2200.540 318.905 Q 2193.160 318.135 2185.192 318.383 Q 2177.223 318.630 2170.125 320.100 Q 2163.026 321.569 2158.135 323.745 Q 2153.244 325.922 2149.787 328.488 Q 2146.329 331.054 2143.029 334.601 L 2140.551 337.682 "></path>
    <path id="STROKE_1eef3bf6-0ae6-4c9b-adee-88e049df2de7" opacity="1.000" fill="none" stroke="#000000" stroke-width="7.140" stroke-opacity="1.000" stroke-linecap="round" stroke-linejoin="round" d="M 2270.363 363.413 L 2270.373 365.429 Q 2270.517 367.963 2272.298 380.631 Q 2274.079 393.299 2275.553 400.530 Q 2277.026 407.761 2279.211 415.400 Q 2281.395 423.039 2283.033 425.641 Q 2284.671 428.243 2285.237 428.674 Q 2285.802 429.105 2286.777 429.259 Q 2287.753 429.414 2290.007 427.255 Q 2292.261 425.096 2295.780 415.302 Q 2299.298 405.508 2301.126 399.396 Q 2302.953 393.283 2305.989 385.328 Q 2309.024 377.373 2312.481 371.473 L 2314.985 368.953 "></path>
    <path id="STROKE_4f806c9a-c12e-429a-9263-3723a213019f" opacity="1.000" fill="none" stroke="#000000" stroke-width="7.140" stroke-opacity="1.000" stroke-linecap="round" stroke-linejoin="round" d="M 2339.866 401.721 Q 2340.402 401.738 2344.746 402.587 Q 2346.131 402.669 2349.476 401.932 Q 2352.820 401.194 2356.761 398.346 Q 2360.701 395.498 2362.870 391.988 Q 2365.040 388.479 2365.549 385.485 Q 2366.058 382.492 2365.581 380.544 Q 2365.104 378.597 2363.793 376.991 Q 2362.482 375.386 2359.591 374.339 Q 2356.699 373.293 2353.118 373.720 Q 2349.537 374.147 2345.247 376.415 Q 2340.956 378.684 2334.962 384.824 Q 2328.968 390.965 2325.911 396.238 Q 2322.854 401.511 2321.413 406.374 Q 2319.971 411.238 2320.002 415.099 Q 2320.032 418.960 2320.564 420.784 Q 2321.095 422.608 2321.798 423.901 Q 2322.500 425.194 2324.781 427.420 Q 2327.062 429.646 2333.311 431.790 Q 2339.560 433.934 2345.887 433.894 Q 2352.214 433.853 2359.201 432.258 Q 2366.189 430.664 2372.695 427.686 Q 2379.201 424.708 2381.953 422.705 Q 2384.706 420.702 2386.788 418.485 Q 2388.869 416.268 2390.492 413.377 Q 2392.115 410.486 2392.938 407.625 Q 2393.760 404.764 2394.741 399.485 "></path>
    <path id="STROKE_e99613cb-6c28-47f0-b25a-8adc2b14b061" opacity="1.000" fill="none" stroke="#000000" stroke-width="7.140" stroke-opacity="1.000" stroke-linecap="round" stroke-linejoin="round" d="M 2401.703 367.783 Q 2400.987 371.197 2399.741 381.967 Q 2398.495 392.736 2398.201 399.678 Q 2397.906 406.620 2398.750 402.785 Q 2399.594 398.950 2401.520 391.803 Q 2403.447 384.656 2405.752 379.950 Q 2408.059 375.244 2410.260 372.584 Q 2412.462 369.924 2415.375 367.923 Q 2418.288 365.923 2422.120 364.943 Q 2425.952 363.963 2427.904 363.941 Q 2429.855 363.920 2436.485 365.398 Q 2443.114 366.876 2446.473 367.900 Q 2449.831 368.924 2452.129 369.518 Q 2454.427 370.113 2456.522 370.538 L 2460.425 371.210 "></path>
    <path id="STROKE_a355834d-db84-4c17-ab9b-c97f7bda1a94" opacity="1.000" fill="none" stroke="#000000" stroke-width="6.919" stroke-opacity="1.000" stroke-linecap="round" stroke-linejoin="round" d="M 2466.829 270.770 Q 2466.453 272.528 2465.889 275.123 Q 2465.325 277.717 2464.162 300.116 Q 2462.998 322.514 2462.870 346.643 Q 2462.742 370.772 2463.952 392.455 Q 2464.201 392.494 2467.716 385.418 Q 2471.232 378.342 2475.216 369.388 Q 2479.200 360.435 2481.791 356.955 Q 2484.382 353.475 2486.117 352.270 Q 2487.853 351.064 2488.698 350.800 Q 2489.544 350.536 2491.013 350.583 Q 2492.482 350.630 2495.419 353.680 Q 2498.357 356.729 2500.593 371.010 Q 2502.828 385.291 2502.679 393.784 Q 2502.529 402.277 2502.409 404.244 Q 2502.290 406.212 2502.228 406.681 Q 2502.155 406.652 2504.519 399.916 "></path>
    <path id="STROKE_86c02e2e-3ccd-458c-8eb9-a5b8d256ca89" opacity="1.000" fill="none" stroke="#000000" stroke-width="7.140" stroke-opacity="1.000" stroke-linecap="round" stroke-linejoin="round" d="M 2535.246 376.853 Q 2538.716 378.263 2540.356 378.723 Q 2541.996 379.184 2543.069 379.323 Q 2544.141 379.462 2546.389 379.366 Q 2548.638 379.269 2552.715 377.218 Q 2556.793 375.166 2559.468 371.655 Q 2562.142 368.144 2562.854 365.166 Q 2563.567 362.189 2563.258 360.597 Q 2562.949 359.005 2562.200 357.874 Q 2561.451 356.743 2559.629 355.895 Q 2557.808 355.048 2555.707 354.983 Q 2553.605 354.919 2550.523 355.829 Q 2547.441 356.739 2543.490 359.181 Q 2539.540 361.623 2536.325 364.518 Q 2533.111 367.412 2528.058 373.975 Q 2523.005 380.537 2520.327 386.496 Q 2517.649 392.455 2517.144 397.028 Q 2516.638 401.600 2517.120 403.777 Q 2517.602 405.953 2518.717 407.892 Q 2519.832 409.830 2523.421 411.896 Q 2527.010 413.961 2531.158 414.287 Q 2535.305 414.613 2543.239 412.429 Q 2551.174 410.245 2556.046 407.785 Q 2560.918 405.325 2563.555 403.678 Q 2566.193 402.031 2573.687 396.162 Q 2581.181 390.293 2586.577 384.863 Q 2591.973 379.434 2595.055 376.114 "></path>
    <path id="STROKE_32c390c1-8ca1-48fa-957b-2d9b44397800" opacity="1.000" fill="none" stroke="#000000" stroke-width="7.140" stroke-opacity="1.000" stroke-linecap="round" stroke-linejoin="round" d="M 2635.300 356.888 Q 2634.413 357.264 2629.165 359.488 Q 2623.916 361.712 2618.461 365.107 Q 2613.007 368.502 2610.397 370.845 Q 2607.788 373.189 2604.585 377.665 Q 2601.383 382.141 2600.371 385.274 Q 2599.358 388.407 2599.387 390.501 Q 2599.416 392.596 2599.795 393.785 Q 2600.174 394.974 2601.413 396.599 Q 2602.651 398.223 2604.440 399.191 Q 2606.229 400.159 2609.001 400.532 Q 2611.774 400.904 2615.558 399.957 Q 2619.343 399.009 2622.012 397.400 Q 2624.680 395.791 2626.382 394.286 Q 2628.083 392.782 2630.807 388.859 Q 2633.531 384.937 2634.498 382.163 Q 2635.466 379.389 2635.644 377.717 Q 2635.823 376.044 2635.622 374.665 Q 2635.422 373.285 2635.146 372.737 Q 2634.869 372.189 2634.516 371.898 Q 2634.162 371.607 2633.816 371.517 Q 2633.470 371.427 2633.092 371.497 Q 2632.715 371.567 2631.546 372.936 Q 2630.378 374.305 2629.431 379.235 Q 2628.485 384.165 2629.330 389.304 Q 2630.175 394.443 2632.407 398.761 Q 2634.639 403.078 2636.525 404.904 Q 2638.411 406.730 2639.975 407.497 Q 2641.538 408.263 2643.142 408.425 Q 2644.746 408.587 2646.468 408.040 Q 2648.189 407.492 2651.728 403.574 Q 2655.267 399.656 2657.626 395.648 "></path>
    <path id="STROKE_f8398391-f6a5-4b35-9b65-b216b0a279aa" opacity="1.000" fill="none" stroke="#000000" stroke-width="6.774" stroke-opacity="1.000" stroke-linecap="round" stroke-linejoin="round" d="M 2710.797 357.647 Q 2703.425 358.826 2699.747 360.051 Q 2696.069 361.275 2690.771 364.814 Q 2685.474 368.353 2680.677 374.457 Q 2675.880 380.560 2674.140 384.292 Q 2672.399 388.024 2671.675 390.524 Q 2670.951 393.024 2670.711 397.655 Q 2670.472 402.285 2671.063 404.589 Q 2671.655 406.892 2672.549 408.363 Q 2673.443 409.835 2674.473 410.781 Q 2675.503 411.728 2676.500 412.264 Q 2677.497 412.800 2681.137 413.195 Q 2684.776 413.590 2689.705 411.602 Q 2694.633 409.614 2699.386 405.259 Q 2704.139 400.903 2709.490 392.714 Q 2714.841 384.525 2717.743 377.294 Q 2720.646 370.062 2722.157 361.783 Q 2723.667 353.503 2723.853 348.625 Q 2724.038 343.747 2723.645 337.829 Q 2723.252 331.910 2721.211 322.661 Q 2719.170 313.412 2718.045 310.608 Q 2716.919 307.804 2716.495 307.182 Q 2716.071 306.560 2715.852 306.566 Q 2715.632 306.572 2716.696 311.838 Q 2717.760 317.104 2720.498 325.821 Q 2723.236 334.538 2726.123 343.839 Q 2729.009 353.140 2730.897 359.660 Q 2732.786 366.179 2736.304 378.016 Q 2739.823 389.852 2742.493 397.189 Q 2745.164 404.526 2747.683 409.249 Q 2750.203 413.971 2751.019 414.831 Q 2751.834 415.690 2752.548 415.993 Q 2752.793 415.950 2753.062 415.132 Q 2753.330 414.314 2753.210 413.163 Q 2753.090 412.012 2752.217 407.815 "></path>
    <path id="STROKE_ff61d41f-e4f3-4dd6-b8ed-60ca6c75f895" opacity="1.000" fill="none" stroke="#000000" stroke-width="6.043" stroke-opacity="1.000" stroke-linecap="round" stroke-linejoin="round" d="M 2179.415 484.125 Q 2179.968 485.840 2183.881 495.746 Q 2187.795 505.652 2191.467 516.500 Q 2195.139 527.347 2198.003 541.205 Q 2200.867 555.062 2201.787 562.483 Q 2202.707 569.904 2203.321 578.685 Q 2203.934 587.466 2204.067 595.259 Q 2204.200 603.052 2204.036 607.126 Q 2203.872 611.200 2203.028 615.779 Q 2202.184 620.359 2201.137 622.703 L 2199.361 624.269 "></path>
    <path id="STROKE_a625563d-da3a-46b9-aa37-3a478a8c3ce9" opacity="1.000" fill="none" stroke="#000000" stroke-width="7.140" stroke-opacity="1.000" stroke-linecap="round" stroke-linejoin="round" d="M 2196.071 475.589 Q 2197.089 475.715 2206.680 477.111 Q 2216.272 478.507 2228.775 481.091 Q 2241.278 483.675 2247.605 486.184 Q 2253.932 488.693 2256.232 490.354 Q 2258.532 492.015 2259.783 493.458 Q 2261.034 494.900 2261.783 496.443 Q 2262.531 497.986 2262.877 500.370 Q 2263.223 502.753 2261.118 508.429 Q 2259.014 514.105 2254.471 519.669 Q 2249.927 525.233 2247.012 528.041 Q 2244.097 530.849 2230.332 544.028 Q 2216.566 557.207 2215.945 559.175 Q 2215.323 561.143 2215.620 562.390 Q 2215.779 562.660 2223.032 564.734 Q 2230.286 566.807 2237.309 567.515 Q 2244.332 568.224 2249.005 569.583 Q 2253.678 570.943 2256.247 572.538 Q 2258.817 574.133 2260.740 576.311 Q 2262.664 578.488 2263.864 581.442 Q 2265.065 584.395 2265.245 587.689 Q 2265.425 590.984 2263.056 597.755 Q 2260.687 604.525 2256.548 609.859 Q 2252.409 615.194 2247.314 619.283 Q 2242.219 623.371 2235.693 626.461 Q 2229.167 629.550 2222.251 630.750 Q 2215.335 631.951 2211.746 631.558 Q 2208.157 631.164 2206.262 630.456 Q 2204.367 629.748 2203.433 629.189 Q 2202.499 628.631 2201.922 628.151 Q 2201.345 627.672 2198.304 623.838 "></path>
    <path id="STROKE_f9eb3870-bee9-44df-9da8-3b52ef1208b4" opacity="1.000" fill="none" stroke="#000000" stroke-width="7.109" stroke-opacity="1.000" stroke-linecap="round" stroke-linejoin="round" d="M 2330.260 572.931 Q 2329.906 573.474 2327.531 576.975 Q 2325.155 580.476 2321.463 588.409 Q 2317.771 596.343 2315.931 604.059 Q 2314.091 611.776 2314.101 618.173 Q 2314.111 624.570 2314.957 627.131 Q 2315.803 629.691 2317.229 631.448 Q 2318.654 633.204 2320.417 633.989 Q 2322.180 634.774 2324.008 634.848 Q 2325.835 634.922 2330.348 633.000 Q 2334.860 631.077 2339.854 626.278 Q 2344.848 621.479 2347.072 618.496 Q 2349.297 615.513 2351.058 612.709 Q 2352.820 609.905 2355.893 603.592 Q 2358.967 597.279 2360.463 591.689 Q 2361.959 586.100 2361.890 582.300 Q 2361.822 578.500 2361.481 577.199 Q 2361.141 575.898 2359.983 573.796 Q 2358.824 571.694 2356.826 570.174 Q 2354.827 568.654 2352.013 567.945 Q 2349.200 567.235 2344.535 568.098 Q 2339.869 568.961 2331.187 574.874 Q 2322.503 580.787 2318.542 585.950 Q 2314.582 591.114 2313.331 594.935 Q 2313.290 595.235 2313.399 600.467 "></path>
    <path id="STROKE_1babd1e7-4352-4d04-9a33-bf22b19d545d" opacity="1.000" fill="none" stroke="#000000" stroke-width="7.140" stroke-opacity="1.000" stroke-linecap="round" stroke-linejoin="round" d="M 2402.320 562.056 Q 2401.719 564.878 2401.526 565.983 Q 2401.333 567.087 2400.931 569.829 Q 2400.530 572.571 2400.023 577.402 Q 2399.516 582.233 2399.203 595.174 Q 2398.890 608.116 2400.047 614.516 Q 2401.204 620.916 2402.277 623.021 Q 2403.351 625.125 2404.223 626.074 Q 2405.096 627.023 2406.355 627.722 Q 2407.614 628.422 2409.182 628.482 Q 2410.750 628.542 2412.069 628.149 Q 2413.389 627.756 2416.921 624.845 Q 2420.454 621.933 2426.215 611.709 Q 2431.977 601.485 2435.077 592.000 Q 2438.177 582.514 2440.301 573.285 Q 2442.426 564.056 2443.576 560.979 Q 2444.727 557.902 2445.225 557.328 Q 2445.724 556.754 2446.037 556.733 Q 2446.349 556.711 2447.720 563.361 Q 2449.090 570.011 2449.900 579.047 Q 2450.711 588.083 2451.875 596.063 Q 2453.038 604.042 2458.347 624.256 Q 2458.450 624.386 2458.742 623.606 Q 2459.035 622.827 2459.338 620.637 "></path>
    <path id="STROKE_303ad0f2-25e4-429a-a45a-dc84e4bb58b6" opacity="1.000" fill="none" stroke="#000000" stroke-width="7.140" stroke-opacity="1.000" stroke-linecap="round" stroke-linejoin="round" d="M 2499.907 553.500 Q 2498.467 559.616 2497.765 564.368 Q 2497.062 569.121 2496.776 573.848 Q 2496.490 578.575 2497.311 592.476 Q 2498.131 606.377 2499.828 603.813 Q 2501.525 601.250 2506.318 588.344 Q 2511.111 575.439 2514.398 567.978 Q 2517.686 560.517 2520.659 556.393 Q 2523.632 552.269 2525.556 550.798 Q 2527.479 549.327 2528.979 548.800 Q 2530.479 548.273 2531.557 548.242 Q 2532.634 548.211 2533.660 548.532 Q 2534.686 548.852 2537.681 552.627 Q 2540.675 556.401 2542.511 567.823 Q 2544.346 579.244 2544.090 587.558 Q 2543.834 595.872 2542.832 601.977 Q 2541.830 608.082 2541.060 610.547 Q 2540.290 613.013 2539.808 613.886 Q 2539.325 614.758 2539.134 614.810 Q 2538.943 614.861 2538.769 614.110 Q 2538.595 613.359 2539.135 610.215 Q 2539.674 607.071 2540.269 604.428 "></path>
    <path id="STROKE_f288de96-2bee-40c8-a325-cb26744e008a" opacity="1.000" fill="none" stroke="#000000" stroke-width="7.140" stroke-opacity="1.000" stroke-linecap="round" stroke-linejoin="round" d="M 1044.172 324.288 Q 1043.950 324.634 1043.822 342.123 Q 1043.694 359.613 1043.120 371.986 Q 1042.545 384.359 1041.239 387.748 Q 1040.886 387.770 1039.525 385.508 Q 1038.165 383.246 1036.704 379.298 "></path>
    <path id="STROKE_056ec6e4-a021-4665-99f8-ba48557c4a3b" opacity="1.000" fill="none" stroke="#000000" stroke-width="7.140" stroke-opacity="1.000" stroke-linecap="round" stroke-linejoin="round" d="M 1041.946 317.684 Q 1043.919 318.257 1046.416 319.189 Q 1048.913 320.121 1052.284 322.189 Q 1055.656 324.257 1060.286 329.536 Q 1064.917 334.815 1070.834 349.094 Q 1076.752 363.373 1079.733 371.476 Q 1082.714 379.580 1084.876 382.953 Q 1087.039 386.326 1088.257 387.175 Q 1089.475 388.023 1090.557 388.108 Q 1091.640 388.194 1094.301 384.535 Q 1096.963 380.877 1099.198 368.057 Q 1101.434 355.237 1102.238 343.091 Q 1103.042 330.946 1103.687 321.383 L 1104.190 322.302 "></path>
    <path id="STROKE_05f351d4-ef8b-404b-b78a-6985f7b42906" opacity="1.000" fill="none" stroke="#000000" stroke-width="7.140" stroke-opacity="1.000" stroke-linecap="round" stroke-linejoin="round" d="M 1139.406 348.551 Q 1138.997 349.805 1138.118 352.022 Q 1137.240 354.239 1135.174 361.758 Q 1133.109 369.276 1132.421 374.483 Q 1131.733 379.689 1132.087 386.413 Q 1132.442 393.137 1133.389 395.834 Q 1134.335 398.531 1135.249 399.765 Q 1136.162 400.999 1136.954 401.574 Q 1137.747 402.149 1139.569 402.612 Q 1141.391 403.075 1142.826 402.866 Q 1144.261 402.658 1149.031 399.263 Q 1153.801 395.869 1158.671 387.816 Q 1163.540 379.764 1165.121 374.983 Q 1166.701 370.202 1167.141 364.842 Q 1167.582 359.482 1166.985 356.741 Q 1166.389 354.000 1165.495 352.318 Q 1164.601 350.637 1163.300 349.272 Q 1162.000 347.907 1158.789 346.518 Q 1155.578 345.130 1152.208 345.011 Q 1148.839 344.892 1142.617 347.216 Q 1136.395 349.540 1133.378 352.231 Q 1130.361 354.923 1129.687 356.090 Q 1129.013 357.257 1128.943 357.998 Q 1128.873 358.739 1128.580 361.376 "></path>
    <path id="STROKE_40892ce1-496e-442a-b245-0b46cca65bce" opacity="1.000" fill="none" stroke="#000000" stroke-width="6.813" stroke-opacity="1.000" stroke-linecap="round" stroke-linejoin="round" d="M 1211.755 272.388 Q 1211.501 273.681 1211.256 275.203 Q 1211.011 276.725 1210.793 278.685 Q 1210.575 280.645 1210.461 282.040 Q 1210.348 283.435 1210.085 289.911 Q 1209.821 296.388 1209.356 307.826 Q 1208.891 319.264 1207.304 334.073 Q 1205.717 348.882 1204.762 356.553 Q 1203.807 364.223 1203.217 369.040 Q 1202.627 373.856 1199.993 394.077 Q 1199.975 394.029 1199.560 380.423 "></path>
    <path id="STROKE_45a3a317-75d6-4006-8a8d-57013873570a" opacity="1.000" fill="none" stroke="#000000" stroke-width="7.140" stroke-opacity="1.000" stroke-linecap="round" stroke-linejoin="round" d="M 1170.408 328.523 Q 1172.343 328.114 1176.428 326.797 Q 1180.514 325.480 1185.185 323.844 Q 1189.857 322.208 1193.192 321.089 Q 1196.528 319.969 1203.035 318.119 Q 1209.542 316.268 1216.889 314.908 Q 1224.235 313.548 1228.588 313.259 Q 1232.942 312.970 1236.861 313.383 Q 1240.781 313.796 1243.678 315.003 Q 1244.251 315.477 1244.642 319.047 "></path>
    <path id="STROKE_a13d75d1-5dee-4502-b379-daf2d385f2ae" opacity="1.000" fill="none" stroke="#000000" stroke-width="6.942" stroke-opacity="1.000" stroke-linecap="round" stroke-linejoin="round" d="M 1374.988 286.697 Q 1374.633 286.947 1371.790 288.615 Q 1368.947 290.283 1363.953 294.512 Q 1358.960 298.742 1353.170 306.693 Q 1347.380 314.644 1343.740 321.778 Q 1340.099 328.912 1337.269 336.701 Q 1334.438 344.489 1333.010 350.387 Q 1331.582 356.285 1330.955 364.946 Q 1330.328 373.607 1331.089 379.054 Q 1331.850 384.500 1333.608 388.744 Q 1335.367 392.989 1337.049 395.317 Q 1338.730 397.644 1342.384 400.591 Q 1346.038 403.538 1350.593 405.137 Q 1355.148 406.736 1360.154 406.921 Q 1365.159 407.107 1372.302 405.236 Q 1379.445 403.365 1387.519 398.413 Q 1395.593 393.462 1400.256 389.277 Q 1404.918 385.092 1408.256 381.384 Q 1411.594 377.677 1415.802 371.924 Q 1420.011 366.170 1424.274 358.172 Q 1428.537 350.174 1430.256 345.518 Q 1431.974 340.862 1433.082 333.458 Q 1434.189 326.054 1433.796 321.865 Q 1433.403 317.677 1432.129 314.011 Q 1430.856 310.346 1428.565 307.081 Q 1426.275 303.816 1421.332 300.198 Q 1416.388 296.579 1411.720 294.908 Q 1407.053 293.237 1398.285 292.279 Q 1389.517 291.321 1381.029 292.526 Q 1372.542 293.731 1369.495 294.964 Q 1366.448 296.198 1365.439 296.807 Q 1364.429 297.416 1363.562 298.152 Q 1362.694 298.888 1359.298 303.494 "></path>
    <path id="STROKE_52627b60-6bfc-43ee-b9c6-c4e03fe3baec" opacity="1.000" fill="none" stroke="#000000" stroke-width="7.140" stroke-opacity="1.000" stroke-linecap="round" stroke-linejoin="round" d="M 1443.946 351.542 L 1444.095 352.703 Q 1444.430 354.670 1444.641 355.603 Q 1444.853 356.537 1445.796 361.720 Q 1446.740 366.904 1447.463 376.913 Q 1448.186 386.922 1448.160 393.792 Q 1448.135 400.663 1449.540 419.192 Q 1450.080 419.512 1455.951 405.715 Q 1461.823 391.919 1465.497 381.206 Q 1469.170 370.492 1471.175 366.703 Q 1473.180 362.913 1474.308 361.628 Q 1475.435 360.344 1476.232 359.978 Q 1477.028 359.613 1478.580 358.768 "></path>
    <path id="STROKE_27c91df6-f4bc-477f-a98b-5f4abe40507d" opacity="1.000" fill="none" stroke="#000000" stroke-width="7.140" stroke-opacity="1.000" stroke-linecap="round" stroke-linejoin="round" d="M 1493.892 389.372 L 1494.865 389.639 Q 1495.306 389.654 1497.804 390.252 Q 1499.241 390.348 1503.071 389.183 Q 1506.901 388.019 1510.773 384.344 Q 1514.646 380.668 1516.138 377.906 Q 1517.630 375.145 1518.147 372.124 Q 1518.663 369.103 1518.233 367.225 Q 1517.803 365.348 1517.160 364.332 Q 1516.517 363.316 1514.547 362.106 Q 1512.577 360.896 1510.818 360.599 Q 1509.059 360.302 1507.296 360.467 Q 1505.533 360.632 1501.013 362.535 Q 1496.493 364.438 1489.689 371.018 Q 1482.884 377.599 1479.457 383.604 Q 1476.029 389.610 1474.854 394.867 Q 1473.678 400.124 1474.026 403.679 Q 1474.374 407.234 1475.289 409.428 Q 1476.204 411.622 1477.784 413.401 Q 1479.364 415.181 1481.236 416.381 Q 1483.107 417.581 1487.062 418.630 Q 1491.016 419.679 1496.220 419.352 Q 1501.424 419.026 1506.530 417.238 Q 1511.636 415.449 1516.290 412.495 Q 1520.944 409.541 1523.379 407.408 Q 1525.814 405.276 1534.247 395.473 "></path>
    <path id="STROKE_b6840b01-8e39-4a9d-88c7-0442fd2bea69" opacity="1.000" fill="none" stroke="#000000" stroke-width="7.140" stroke-opacity="1.000" stroke-linecap="round" stroke-linejoin="round" d="M 1549.285 366.233 Q 1548.604 368.473 1547.794 372.200 Q 1546.984 375.927 1544.858 383.409 Q 1542.732 390.891 1541.053 393.158 Q 1540.903 392.946 1540.812 391.406 Q 1540.722 389.867 1542.218 384.382 Q 1543.714 378.897 1546.940 372.864 Q 1550.167 366.831 1553.202 363.375 Q 1556.236 359.919 1561.684 356.261 Q 1567.132 352.604 1574.907 350.233 Q 1582.682 347.862 1585.015 347.306 "></path>
    <path id="STROKE_ff87a787-e585-4aa9-9da3-888d0bee19d5" opacity="1.000" fill="none" stroke="#000000" stroke-width="7.034" stroke-opacity="1.000" stroke-linecap="round" stroke-linejoin="round" d="M 1604.575 276.121 Q 1604.562 276.687 1604.516 289.207 Q 1604.469 301.726 1603.974 311.202 Q 1603.479 320.677 1599.379 349.393 Q 1595.280 378.110 1595.986 399.688 Q 1596.569 399.882 1603.676 389.991 Q 1610.784 380.100 1616.496 370.728 Q 1622.209 361.357 1625.040 358.565 Q 1627.871 355.774 1629.064 355.401 Q 1630.258 355.029 1630.891 355.182 Q 1631.524 355.336 1633.011 359.461 Q 1634.498 363.587 1633.220 375.587 Q 1631.942 387.587 1624.886 413.983 L 1624.615 414.903 "></path>
    <path id="STROKE_aac5b806-1e20-4b56-9ffc-10c46f22d9c0" opacity="1.000" fill="none" stroke="#000000" stroke-width="7.140" stroke-opacity="1.000" stroke-linecap="round" stroke-linejoin="round" d="M 1655.241 389.372 Q 1657.673 389.259 1659.803 388.952 Q 1661.932 388.645 1665.283 387.385 Q 1668.633 386.125 1672.643 382.738 Q 1676.652 379.351 1678.628 375.829 Q 1680.604 372.308 1680.767 369.355 Q 1680.929 366.402 1680.333 365.042 Q 1679.737 363.682 1678.360 362.640 Q 1676.983 361.598 1674.707 361.203 Q 1672.432 360.808 1668.045 362.040 Q 1663.658 363.273 1657.396 368.123 Q 1651.134 372.972 1646.485 379.385 Q 1641.835 385.799 1639.924 390.945 Q 1638.013 396.091 1637.987 400.158 Q 1637.962 404.225 1638.741 406.215 Q 1639.520 408.204 1640.405 409.252 Q 1641.290 410.299 1644.010 411.604 Q 1646.730 412.910 1653.029 412.202 Q 1659.327 411.495 1671.701 402.645 Q 1684.075 393.796 1686.380 391.884 "></path>
    <path id="STROKE_4933a2ef-085d-4f39-8a8e-16278591b386" opacity="1.000" fill="none" stroke="#000000" stroke-width="7.140" stroke-opacity="1.000" stroke-linecap="round" stroke-linejoin="round" d="M 1721.733 359.007 Q 1719.286 361.008 1714.948 365.413 Q 1710.610 369.819 1707.913 373.374 Q 1705.216 376.928 1702.328 382.393 Q 1699.441 387.857 1698.549 392.284 Q 1697.657 396.712 1698.213 398.782 Q 1698.769 400.853 1699.318 401.383 Q 1699.868 401.914 1701.336 402.263 Q 1702.805 402.612 1705.839 401.434 Q 1708.874 400.256 1713.083 396.039 Q 1717.293 391.821 1720.539 386.086 Q 1723.784 380.350 1724.983 376.429 Q 1726.182 372.508 1726.344 371.124 Q 1726.505 369.740 1726.443 369.166 Q 1726.382 368.592 1726.311 368.430 Q 1726.240 368.268 1726.079 368.280 Q 1725.918 368.293 1725.545 369.205 Q 1725.172 370.116 1724.921 375.484 Q 1724.669 380.851 1725.335 383.840 Q 1726.002 386.829 1726.899 388.324 Q 1727.796 389.819 1728.355 390.344 Q 1728.915 390.868 1729.369 391.117 Q 1729.823 391.365 1730.365 391.421 Q 1730.907 391.476 1736.292 390.257 "></path>
    <path id="STROKE_eb68d0fe-53eb-47d3-9baf-8d231fe30d89" opacity="1.000" fill="none" stroke="#000000" stroke-width="6.777" stroke-opacity="1.000" stroke-linecap="round" stroke-linejoin="round" d="M 1780.243 342.090 Q 1777.395 344.594 1771.346 350.790 Q 1765.296 356.987 1760.688 363.675 Q 1756.079 370.363 1754.007 375.615 Q 1751.934 380.867 1751.838 383.943 Q 1751.742 387.019 1752.342 388.438 Q 1752.943 389.856 1753.370 390.274 Q 1753.798 390.691 1754.249 390.944 Q 1754.699 391.198 1756.097 391.333 Q 1757.495 391.469 1761.212 389.520 Q 1764.928 387.571 1770.789 379.486 Q 1776.650 371.402 1780.112 362.563 Q 1783.575 353.724 1784.807 348.754 Q 1786.039 343.784 1786.706 339.336 Q 1787.372 334.887 1787.633 331.868 Q 1787.895 328.848 1787.835 317.767 Q 1787.776 306.686 1784.139 292.397 Q 1783.579 292.793 1783.310 293.248 Q 1783.042 293.703 1781.782 302.899 Q 1780.523 312.095 1780.908 328.346 Q 1781.293 344.596 1784.158 364.505 Q 1787.023 384.415 1790.467 397.729 Q 1793.911 411.043 1797.545 416.547 Q 1797.916 416.471 1798.676 411.513 Q 1799.436 406.555 1799.427 403.082 "></path>
    <path id="STROKE_a0f02e28-93b9-4104-98fe-6db8710afeae" opacity="1.000" fill="none" stroke="#000000" stroke-width="5.961" stroke-opacity="1.000" stroke-linecap="round" stroke-linejoin="round" d="M 1080.895 492.190 Q 1080.967 492.069 1081.585 490.005 Q 1082.204 487.941 1082.758 487.112 Q 1083.312 486.282 1083.710 486.348 Q 1084.108 486.413 1088.472 507.737 Q 1092.837 529.060 1094.149 547.739 Q 1095.462 566.419 1095.814 572.978 Q 1096.166 579.538 1096.250 580.819 Q 1096.334 582.100 1096.371 582.318 Q 1096.407 582.536 1096.323 581.133 Q 1096.238 579.729 1096.105 577.948 "></path>
    <path id="STROKE_c64dfc57-857d-4e7a-8117-84e5e852ac70" opacity="1.000" fill="none" stroke="#000000" stroke-width="7.010" stroke-opacity="1.000" stroke-linecap="round" stroke-linejoin="round" d="M 1092.851 478.120 Q 1093.387 477.661 1095.222 475.758 Q 1097.057 473.854 1099.612 471.724 Q 1102.166 469.595 1108.884 466.077 Q 1115.603 462.560 1126.771 460.112 Q 1137.939 457.663 1148.627 459.108 Q 1159.314 460.552 1160.584 461.655 Q 1161.855 462.757 1162.536 464.193 Q 1163.218 465.629 1162.085 471.355 Q 1160.953 477.080 1146.821 494.565 Q 1132.689 512.050 1125.994 520.282 Q 1119.300 528.514 1118.304 531.224 Q 1117.307 533.933 1117.565 535.345 Q 1117.970 535.892 1124.160 536.112 Q 1130.349 536.333 1137.370 535.261 Q 1144.391 534.189 1147.604 534.068 Q 1150.817 533.948 1154.376 534.499 Q 1157.935 535.050 1160.127 536.046 Q 1162.320 537.042 1164.098 538.765 Q 1165.875 540.489 1166.947 543.047 Q 1168.018 545.606 1167.982 549.151 Q 1167.947 552.697 1165.992 557.714 Q 1164.038 562.730 1161.536 566.291 Q 1159.035 569.852 1153.822 574.607 Q 1148.609 579.362 1142.555 582.615 Q 1136.500 585.869 1130.818 587.196 Q 1125.137 588.523 1121.201 588.306 Q 1117.265 588.089 1115.329 587.371 Q 1113.392 586.652 1112.410 586.014 Q 1111.427 585.376 1111.031 585.018 Q 1110.636 584.661 1110.321 584.289 Q 1110.005 583.917 1107.684 579.192 "></path>
    <path id="STROKE_5508a99f-ef74-47d4-a963-7790dad9e2d5" opacity="1.000" fill="none" stroke="#000000" stroke-width="7.140" stroke-opacity="1.000" stroke-linecap="round" stroke-linejoin="round" d="M 1224.841 531.767 Q 1224.253 532.710 1222.089 536.180 Q 1219.925 539.650 1217.831 544.259 Q 1215.738 548.869 1213.724 560.044 Q 1211.710 571.219 1212.390 577.420 Q 1213.069 583.620 1214.417 586.828 Q 1215.765 590.036 1218.640 592.907 Q 1221.515 595.778 1225.101 596.799 Q 1228.686 597.819 1233.542 596.809 Q 1238.398 595.798 1244.183 591.030 Q 1249.968 586.262 1253.490 580.271 Q 1257.013 574.279 1258.621 568.269 Q 1260.229 562.258 1260.210 558.419 Q 1260.191 554.579 1259.501 551.893 Q 1258.811 549.206 1256.981 546.291 Q 1255.151 543.376 1253.461 541.812 Q 1251.771 540.248 1247.282 538.239 Q 1242.794 536.230 1238.455 535.949 Q 1234.116 535.669 1229.153 537.150 Q 1224.189 538.632 1217.460 545.416 Q 1217.956 547.403 1219.120 549.713 "></path>
    <path id="STROKE_849692e8-e2a6-4eef-a515-7fe9d5546717" opacity="1.000" fill="none" stroke="#000000" stroke-width="7.140" stroke-opacity="1.000" stroke-linecap="round" stroke-linejoin="round" d="M 1298.801 526.311 Q 1298.351 528.602 1297.974 530.297 Q 1297.597 531.991 1297.222 547.468 Q 1296.846 562.945 1298.180 570.961 Q 1299.515 578.977 1301.170 582.976 Q 1302.825 586.975 1304.206 588.663 Q 1305.587 590.351 1306.458 591.016 Q 1307.330 591.680 1307.978 591.976 Q 1308.627 592.272 1309.655 592.503 Q 1310.683 592.734 1312.323 592.498 Q 1313.963 592.261 1316.558 590.436 Q 1319.154 588.611 1324.244 579.752 Q 1329.334 570.892 1331.330 564.972 Q 1333.326 559.051 1334.646 553.628 Q 1335.966 548.205 1336.852 544.311 Q 1337.739 540.416 1338.025 539.759 Q 1338.311 539.101 1339.627 544.050 Q 1340.943 548.999 1343.732 563.342 Q 1346.521 577.684 1348.890 584.305 Q 1351.259 590.925 1352.618 592.388 Q 1353.937 591.339 1355.325 589.290 "></path>
    <path id="STROKE_01c6be51-32c1-4147-8937-8ce4b4448d38" opacity="1.000" fill="none" stroke="#000000" stroke-width="7.113" stroke-opacity="1.000" stroke-linecap="round" stroke-linejoin="round" d="M 1393.281 520.210 Q 1393.127 521.661 1392.793 532.132 Q 1392.459 542.602 1391.656 556.376 Q 1390.853 570.150 1390.877 576.791 Q 1390.901 583.432 1391.217 584.097 Q 1391.533 584.763 1391.778 584.686 Q 1392.023 584.609 1392.627 584.043 Q 1393.232 583.477 1394.564 581.226 Q 1395.896 578.975 1399.997 568.844 Q 1404.098 558.713 1408.498 548.158 Q 1412.898 537.603 1416.912 531.281 Q 1420.926 524.959 1423.284 522.791 Q 1425.642 520.622 1427.345 519.796 Q 1429.047 518.970 1430.728 518.744 Q 1432.409 518.518 1434.267 519.185 Q 1436.124 519.851 1438.903 524.249 Q 1441.683 528.648 1442.967 535.044 Q 1444.251 541.439 1444.570 545.280 Q 1444.889 549.121 1445.358 560.568 Q 1445.826 572.015 1446.459 578.155 Q 1447.093 584.294 1447.578 585.437 "></path>
    <path id="STROKE_4887a3e4-24c2-49f0-a4e4-cf42206dca92" opacity="1.000" fill="none" stroke="#000000" stroke-width="6.694" stroke-opacity="1.000" stroke-linecap="round" stroke-linejoin="round" d="M 1522.531 528.297 Q 1516.382 529.323 1513.985 530.163 Q 1511.588 531.003 1508.320 533.047 Q 1505.052 535.091 1501.496 538.727 Q 1497.941 542.364 1494.841 547.054 Q 1491.742 551.745 1488.486 559.152 Q 1485.229 566.560 1483.364 575.093 Q 1481.499 583.625 1481.734 589.013 Q 1481.969 594.401 1483.322 598.120 Q 1484.676 601.841 1486.982 604.276 Q 1489.288 606.712 1492.577 607.861 Q 1495.866 609.011 1498.676 608.776 Q 1501.487 608.541 1504.993 606.683 Q 1508.500 604.825 1514.217 596.886 Q 1519.935 588.947 1523.161 578.892 Q 1526.387 568.838 1527.437 560.276 Q 1528.488 551.714 1528.381 544.390 Q 1528.274 537.066 1526.189 521.549 Q 1524.105 506.033 1522.967 496.915 Q 1521.829 487.798 1521.834 483.946 Q 1521.839 480.095 1522.230 479.237 Q 1522.385 479.258 1523.350 482.393 Q 1524.314 485.528 1528.119 506.251 Q 1531.923 526.975 1537.963 554.975 Q 1544.003 582.975 1548.431 598.726 Q 1552.859 614.478 1555.913 618.582 Q 1556.120 618.663 1557.857 615.911 Q 1559.594 613.160 1561.001 608.695 "></path>
    <path id="STROKE_db8464b3-0c0e-4ebb-9a6b-ecf036390c4e" opacity="1.000" fill="none" stroke="#000000" stroke-width="7.139" stroke-opacity="1.000" stroke-linecap="round" stroke-linejoin="round" d="M 2610.872 545.738 Q 2597.521 550.718 2592.630 553.063 Q 2587.739 555.409 2585.167 556.947 Q 2582.596 558.485 2579.774 560.501 Q 2576.952 562.517 2573.695 565.440 Q 2570.438 568.362 2565.286 575.378 Q 2560.135 582.393 2557.116 592.314 Q 2554.098 602.234 2554.681 608.172 Q 2555.264 614.109 2557.104 617.475 Q 2558.943 620.842 2560.876 622.482 Q 2562.808 624.122 2566.150 625.040 Q 2569.493 625.958 2573.055 625.436 Q 2576.618 624.913 2581.349 622.131 Q 2586.081 619.349 2590.119 614.903 Q 2594.158 610.457 2599.174 600.416 Q 2604.191 590.374 2606.732 578.395 Q 2609.272 566.417 2609.223 556.012 Q 2609.174 545.608 2607.077 534.898 Q 2604.979 524.188 2598.599 506.020 Q 2598.650 505.907 2601.449 515.885 Q 2604.249 525.863 2615.810 558.891 Q 2627.371 591.918 2641.618 611.039 Q 2643.173 612.147 2653.740 615.554 "></path>
    <path id="STROKE_4298df80-6dd4-4ade-814a-e077345f20e0" opacity="1.000" fill="none" stroke="#171612" stroke-width="3.727" stroke-opacity="1.000" stroke-linecap="round" stroke-linejoin="round" d="M 891.623 658.997 Q 890.418 659.135 887.475 659.306 Q 884.531 659.478 881.202 660.076 Q 877.872 660.675 873.576 662.161 Q 869.279 663.647 861.957 668.390 Q 854.634 673.134 849.415 678.646 Q 844.196 684.158 839.570 692.056 Q 834.944 699.954 832.870 706.950 Q 830.795 713.946 830.696 720.550 Q 830.596 727.154 832.102 731.570 Q 833.608 735.986 835.372 738.523 Q 837.137 741.061 842.365 744.612 Q 847.593 748.164 852.824 749.791 Q 858.055 751.418 865.749 751.889 Q 873.444 752.360 890.391 748.639 Q 894.795 745.831 898.665 743.965 "></path>
    <path id="STROKE_5ea7a2c6-59ba-4c30-85a3-2e08c1ade7bb" opacity="1.000" fill="none" stroke="#171612" stroke-width="3.938" stroke-opacity="1.000" stroke-linecap="round" stroke-linejoin="round" d="M 941.468 656.490 Q 940.647 659.590 940.739 673.285 Q 940.830 686.981 941.128 695.450 Q 941.425 703.918 941.569 710.171 Q 941.714 716.423 941.747 733.337 Q 941.781 750.251 941.374 763.693 Q 941.466 763.491 940.964 754.843 Q 940.463 746.195 940.133 740.621 "></path>
    <path id="STROKE_e802fd3c-0f9f-4535-811d-c0cc5dd2d984" opacity="1.000" fill="none" stroke="#171612" stroke-width="3.634" stroke-opacity="1.000" stroke-linecap="round" stroke-linejoin="round" d="M 939.305 643.952 Q 939.942 643.910 941.816 644.823 Q 943.690 645.736 950.194 646.478 Q 956.699 647.219 961.482 648.400 Q 966.266 649.580 969.292 650.873 Q 972.319 652.166 974.819 654.135 Q 977.320 656.104 979.331 658.667 Q 981.341 661.229 982.861 666.294 Q 984.380 671.359 982.757 679.351 Q 981.133 687.343 978.011 692.159 Q 974.888 696.975 972.236 699.381 Q 969.585 701.787 967.684 702.940 Q 965.784 704.094 963.654 704.906 Q 961.525 705.718 958.965 705.932 Q 956.405 706.146 954.037 705.758 Q 951.669 705.369 949.444 704.922 Q 947.219 704.475 938.154 702.654 "></path>
    <path id="STROKE_e580e7da-0bd5-43a7-a269-6af4ba6b2f38" opacity="1.000" fill="none" stroke="#171612" stroke-width="6.136" stroke-opacity="1.000" stroke-linecap="round" stroke-linejoin="round" d="M 1032.138 645.623 Q 1031.918 646.203 1030.714 648.788 Q 1029.510 651.374 1027.962 655.837 Q 1026.415 660.299 1025.697 662.587 Q 1024.979 664.874 1022.770 671.728 Q 1020.560 678.582 1016.588 695.686 Q 1012.616 712.790 1011.897 720.731 Q 1011.179 728.671 1011.884 734.530 Q 1012.590 740.389 1013.532 742.662 Q 1014.475 744.934 1015.896 746.141 Q 1017.316 747.348 1020.622 747.536 Q 1023.928 747.725 1025.713 747.152 Q 1027.497 746.579 1032.106 743.555 Q 1036.715 740.532 1043.993 730.373 Q 1051.271 720.215 1056.228 708.307 Q 1061.186 696.400 1064.163 687.907 Q 1067.140 679.414 1069.303 673.175 Q 1069.388 673.140 1071.170 672.951 Q 1072.953 672.762 1075.032 675.585 Q 1077.110 678.408 1079.005 684.276 Q 1080.899 690.144 1083.350 706.819 Q 1085.801 723.494 1087.273 731.433 Q 1088.745 739.372 1090.185 743.100 Q 1091.625 746.828 1093.013 748.722 Q 1094.401 750.616 1096.051 751.635 Q 1097.701 752.654 1107.251 750.973 "></path>
    <path id="STROKE_b6d9fbab-7f6d-4aa1-94b3-79c87b22d4f5" opacity="1.000" fill="none" stroke="#171612" stroke-width="3.727" stroke-opacity="1.000" stroke-linecap="round" stroke-linejoin="round" d="M 1866.861 681.569 Q 1865.745 681.658 1863.023 681.721 Q 1860.301 681.785 1857.209 682.230 Q 1854.118 682.675 1850.105 683.908 Q 1846.093 685.142 1839.183 689.283 Q 1832.273 693.425 1827.280 698.344 Q 1822.287 703.263 1817.763 710.402 Q 1813.240 717.542 1811.101 723.931 Q 1808.962 730.320 1808.658 736.411 Q 1808.353 742.502 1809.601 746.626 Q 1810.849 750.749 1812.396 753.147 Q 1813.942 755.545 1818.652 758.991 Q 1823.363 762.437 1828.137 764.106 Q 1832.912 765.776 1839.998 766.458 Q 1847.083 767.140 1862.842 764.251 Q 1866.996 761.801 1870.627 760.204 "></path>
    <path id="STROKE_1859bbe4-fc14-4ada-8d01-aced90f0d8f2" opacity="1.000" fill="none" stroke="#171612" stroke-width="3.938" stroke-opacity="1.000" stroke-linecap="round" stroke-linejoin="round" d="M 1912.939 680.858 Q 1912.082 683.693 1911.726 696.334 Q 1911.370 708.975 1911.372 716.800 Q 1911.374 724.624 1911.306 730.399 Q 1911.238 736.173 1910.725 751.782 Q 1910.212 767.392 1909.405 779.783 Q 1909.495 779.599 1909.311 771.603 Q 1909.126 763.607 1909.002 758.452 "></path>
    <path id="STROKE_648f38e5-f915-4358-afa5-2dd638e30525" opacity="1.000" fill="none" stroke="#171612" stroke-width="3.634" stroke-opacity="1.000" stroke-linecap="round" stroke-linejoin="round" d="M 1911.346 669.219 Q 1911.935 669.201 1913.635 670.104 Q 1915.335 671.007 1921.313 671.900 Q 1927.292 672.794 1931.668 674.037 Q 1936.045 675.280 1938.796 676.570 Q 1941.547 677.860 1943.791 679.758 Q 1946.035 681.656 1947.808 684.085 Q 1949.581 686.515 1950.821 691.237 Q 1952.060 695.960 1950.305 703.283 Q 1948.550 710.605 1945.513 714.949 Q 1942.477 719.293 1939.953 721.428 Q 1937.428 723.563 1935.637 724.566 Q 1933.847 725.570 1931.855 726.250 Q 1929.864 726.931 1927.495 727.046 Q 1925.126 727.162 1922.953 726.727 Q 1920.780 726.292 1918.741 725.808 Q 1916.702 725.324 1908.396 723.353 "></path>
    <path id="STROKE_8699e27e-c8f9-4362-8474-75d27d92ee16" opacity="1.000" fill="none" stroke="#171612" stroke-width="6.136" stroke-opacity="1.000" stroke-linecap="round" stroke-linejoin="round" d="M 1996.958 673.747 Q 1996.737 674.274 1995.543 676.622 Q 1994.348 678.969 1992.777 683.037 Q 1991.205 687.106 1990.469 689.193 Q 1989.733 691.281 1987.474 697.535 Q 1985.214 703.789 1980.999 719.445 Q 1976.783 735.101 1975.865 742.405 Q 1974.946 749.709 1975.409 755.139 Q 1975.872 760.568 1976.669 762.695 Q 1977.465 764.823 1978.738 765.982 Q 1980.010 767.141 1983.054 767.422 Q 1986.099 767.702 1987.764 767.231 Q 1989.429 766.759 1993.780 764.117 Q 1998.130 761.476 2005.173 752.335 Q 2012.215 743.195 2017.173 732.366 Q 2022.131 721.537 2025.151 713.796 Q 2028.172 706.055 2030.368 700.366 Q 2030.448 700.337 2032.099 700.220 Q 2033.750 700.103 2035.578 702.775 Q 2037.405 705.447 2038.964 710.923 Q 2040.523 716.399 2042.249 731.866 Q 2043.975 747.332 2045.078 754.705 Q 2046.181 762.079 2047.390 765.565 Q 2048.599 769.051 2049.818 770.844 Q 2051.038 772.637 2052.528 773.630 Q 2054.018 774.624 2062.885 773.379 "></path>
    <path id="STROKE_4ed01686-7066-4c00-9b1d-39a951f341ed" opacity="1.000" fill="none" stroke="#90d94b" stroke-width="7.594" stroke-opacity="1.000" stroke-linecap="round" stroke-linejoin="round" d="M 1308.521 645.931 Q 1301.473 647.109 1299.514 647.709 Q 1297.555 648.308 1295.964 648.968 Q 1294.373 649.627 1290.256 651.977 Q 1286.138 654.327 1276.155 664.298 Q 1266.172 674.269 1259.136 685.603 Q 1252.100 696.937 1247.878 707.518 Q 1243.656 718.099 1242.354 727.129 Q 1241.053 736.158 1241.841 741.738 Q 1242.629 747.317 1244.386 750.902 Q 1246.145 754.487 1249.140 756.989 Q 1252.135 759.491 1256.791 760.689 Q 1261.446 761.887 1266.859 761.430 Q 1272.272 760.973 1282.056 755.885 Q 1291.840 750.797 1297.545 745.390 Q 1303.250 739.983 1306.898 734.296 Q 1310.546 728.609 1311.316 725.514 Q 1312.087 722.418 1311.790 720.948 Q 1311.492 719.477 1311.048 718.560 Q 1310.604 717.643 1307.552 716.338 Q 1304.499 715.032 1294.627 716.974 Q 1284.755 718.916 1280.231 721.014 Q 1275.707 723.113 1275.108 723.708 Q 1274.509 724.304 1273.349 725.037 "></path>
    <path id="STROKE_bd7b0922-9b0e-490f-b6fc-e90672d83a66" opacity="1.000" fill="none" stroke="#90d94b" stroke-width="7.875" stroke-opacity="1.000" stroke-linecap="round" stroke-linejoin="round" d="M 1342.360 665.977 Q 1342.691 665.872 1347.224 665.443 Q 1348.207 666.463 1352.370 679.549 Q 1356.533 692.634 1358.849 713.757 Q 1361.165 734.879 1361.568 748.494 Q 1361.971 762.108 1361.662 767.342 Q 1361.133 767.443 1360.304 762.737 Q 1359.475 758.032 1358.830 753.561 "></path>
    <path id="STROKE_b844ad93-9eef-4999-97e6-cb978518efb6" opacity="1.000" fill="none" stroke="#90d94b" stroke-width="5.163" stroke-opacity="1.000" stroke-linecap="round" stroke-linejoin="round" d="M 1359.928 671.459 L 1360.706 668.893 Q 1361.362 667.261 1364.902 663.978 Q 1368.443 660.695 1372.711 658.779 Q 1376.979 656.864 1382.409 656.159 Q 1387.839 655.454 1393.600 656.363 Q 1399.361 657.271 1403.147 659.573 Q 1406.933 661.875 1408.463 663.710 Q 1409.993 665.545 1411.029 669.418 Q 1412.065 673.292 1409.975 680.221 Q 1407.886 687.150 1402.824 693.933 Q 1397.761 700.716 1392.336 705.431 Q 1386.911 710.145 1381.923 712.893 Q 1376.936 715.640 1373.893 716.482 Q 1370.851 717.323 1367.786 717.500 Q 1364.720 717.677 1363.595 717.411 Q 1362.470 717.145 1355.241 715.335 "></path>
    <path id="STROKE_1279d94e-30da-42e4-9603-94ed9ecb0b87" opacity="1.000" fill="none" stroke="#90d94b" stroke-width="7.405" stroke-opacity="1.000" stroke-linecap="round" stroke-linejoin="round" d="M 1448.902 658.187 L 1447.694 660.090 Q 1446.445 662.890 1442.941 671.914 Q 1439.437 680.938 1435.090 693.202 Q 1430.743 705.466 1428.364 716.549 Q 1425.984 727.632 1425.840 732.343 Q 1425.696 737.054 1426.370 740.664 Q 1427.044 744.275 1427.924 746.210 Q 1428.804 748.145 1430.315 749.403 Q 1431.827 750.661 1434.744 751.246 Q 1437.662 751.832 1442.015 750.178 Q 1446.368 748.524 1451.883 743.443 Q 1457.397 738.362 1463.439 728.649 Q 1469.481 718.937 1473.470 707.647 Q 1477.460 696.357 1478.743 690.805 Q 1480.025 685.253 1480.972 680.967 Q 1481.918 676.682 1482.978 692.137 Q 1484.037 707.593 1485.818 721.997 Q 1487.599 736.401 1489.599 742.458 Q 1491.600 748.515 1493.092 750.996 Q 1494.584 753.478 1495.297 754.228 Q 1496.010 754.979 1496.608 755.373 Q 1497.206 755.767 1497.988 756.132 Q 1498.770 756.498 1503.903 758.046 "></path>
    <path id="STROKE_9bba2774-d672-4f0a-a067-b740ce832d01" opacity="1.000" fill="none" stroke="#90d94b" stroke-width="7.594" stroke-opacity="1.000" stroke-linecap="round" stroke-linejoin="round" d="M 2338.982 677.234 Q 2332.013 678.114 2330.064 678.626 Q 2328.116 679.138 2326.528 679.723 Q 2324.939 680.308 2320.802 682.455 Q 2316.665 684.601 2306.466 694.002 Q 2296.267 703.404 2288.909 714.261 Q 2281.552 725.117 2276.988 735.345 Q 2272.424 745.573 2270.790 754.392 Q 2269.157 763.210 2269.711 768.722 Q 2270.265 774.233 2271.851 777.824 Q 2273.437 781.415 2276.281 783.990 Q 2279.125 786.566 2283.651 787.926 Q 2288.177 789.286 2293.512 789.051 Q 2298.847 788.815 2308.658 784.202 Q 2318.469 779.589 2324.286 774.502 Q 2330.103 769.415 2333.911 763.972 Q 2337.718 758.529 2338.596 755.519 Q 2339.475 752.509 2339.241 751.053 Q 2339.006 749.596 2338.606 748.678 Q 2338.206 747.760 2335.259 746.357 Q 2332.312 744.955 2322.538 746.474 Q 2312.764 747.993 2308.237 749.876 Q 2303.711 751.759 2303.099 752.321 Q 2302.487 752.882 2301.319 753.556 "></path>
    <path id="STROKE_fd1a1f07-06ea-4a0e-ac7b-0a1420ac727d" opacity="1.000" fill="none" stroke="#90d94b" stroke-width="7.875" stroke-opacity="1.000" stroke-linecap="round" stroke-linejoin="round" d="M 2371.434 698.257 Q 2371.763 698.167 2376.232 697.924 Q 2377.158 698.965 2380.732 711.983 Q 2384.307 725.000 2385.751 745.841 Q 2387.195 766.681 2387.055 780.070 Q 2386.915 793.459 2386.405 798.589 Q 2385.882 798.667 2385.252 794.012 Q 2384.623 789.357 2384.166 784.940 "></path>
    <path id="STROKE_bc529df8-0162-4c02-8b3b-7dd872b200cc" opacity="1.000" fill="none" stroke="#90d94b" stroke-width="5.163" stroke-opacity="1.000" stroke-linecap="round" stroke-linejoin="round" d="M 2388.476 704.333 L 2389.341 701.844 Q 2390.049 700.266 2393.656 697.180 Q 2397.263 694.095 2401.531 692.381 Q 2405.799 690.668 2411.161 690.189 Q 2416.522 689.710 2422.146 690.829 Q 2427.770 691.948 2431.398 694.358 Q 2435.026 696.769 2436.457 698.631 Q 2437.888 700.494 2438.753 704.340 Q 2439.617 708.186 2437.292 714.910 Q 2434.968 721.635 2429.728 728.098 Q 2424.488 734.562 2418.973 738.980 Q 2413.458 743.397 2408.451 745.900 Q 2403.443 748.402 2400.421 749.109 Q 2397.400 749.816 2394.382 749.869 Q 2391.364 749.922 2390.270 749.617 Q 2389.175 749.312 2382.145 747.249 "></path>
    <path id="STROKE_43f96eb8-e89d-4186-92d6-ae4cadcea2fb" opacity="1.000" fill="none" stroke="#90d94b" stroke-width="7.405" stroke-opacity="1.000" stroke-linecap="round" stroke-linejoin="round" d="M 2476.397 694.798 L 2475.136 696.619 Q 2473.799 699.321 2470.002 708.048 Q 2466.205 716.774 2461.452 728.650 Q 2456.699 740.526 2453.926 751.319 Q 2451.152 762.113 2450.825 766.735 Q 2450.499 771.356 2451.019 774.930 Q 2451.538 778.503 2452.327 780.438 Q 2453.115 782.373 2454.550 783.669 Q 2455.985 784.964 2458.828 785.654 Q 2461.671 786.344 2466.012 784.890 Q 2470.353 783.437 2475.970 778.663 Q 2481.588 773.889 2487.905 764.586 Q 2494.222 755.283 2498.585 744.350 Q 2502.948 733.416 2504.427 728.013 Q 2505.905 722.610 2507.004 718.437 Q 2508.102 714.265 2508.534 729.489 Q 2508.967 744.713 2510.149 758.932 Q 2511.332 773.151 2513.059 779.180 Q 2514.786 785.208 2516.154 787.704 Q 2517.521 790.201 2518.192 790.966 Q 2518.863 791.732 2519.435 792.142 Q 2520.007 792.552 2520.760 792.942 Q 2521.514 793.332 2526.496 795.055 "></path>
    <path id="STROKE_e8d1e89c-ae2c-4f1d-aa21-09e232278c7d" opacity="1.000" fill="none" stroke="#90d94b" stroke-width="1.457" stroke-opacity="1.000" stroke-linecap="round" stroke-linejoin="round" d="M 592.734 1375.543 Q 594.662 1375.452 592.345 1375.585 Q 592.519 1375.655 595.043 1375.491 Q 597.567 1375.327 597.544 1375.289 "></path>
    <path id="STROKE_94ce4b98-9a56-435b-88d4-93532e01a9f8" opacity="1.000" fill="none" stroke="#000000" stroke-width="3.500" stroke-opacity="1.000" stroke-linecap="round" stroke-linejoin="round" d="M 865.676 961.315 Q 865.676 961.862 865.645 939.323 L 865.667 955.118 L 865.667 954.813 Q 865.668 955.607 865.701 979.681 Q 865.730 1000.543 865.757 1020.037 Q 865.788 1042.000 865.813 1060.394 Q 865.845 1082.968 865.870 1100.751 Q 865.900 1122.348 865.926 1141.108 Q 865.955 1162.034 865.982 1181.465 Q 866.012 1203.033 866.038 1221.822 Q 866.068 1243.665 866.094 1262.179 Q 866.121 1281.386 866.150 1302.536 Q 884.808 1302.505 903.301 1302.475 Q 922.948 1302.443 940.452 1302.414 Q 959.078 1302.383 977.603 1302.353 Q 996.374 1302.322 1014.754 1302.292 L 1003.254 1302.311 Q 1005.171 1302.307 1004.984 1302.308 Q 1006.543 1302.305 1014.754 1302.292 Q 1014.729 1284.379 1014.698 1261.935 Q 1014.665 1238.649 1014.642 1221.578 Q 1014.608 1197.202 1014.586 1181.221 Q 1014.557 1160.386 1014.529 1140.864 Q 1014.499 1119.082 1014.473 1100.507 Q 1014.444 1079.549 1014.417 1060.150 Q 1014.387 1038.245 1014.361 1019.793 Q 1014.331 998.224 1014.305 979.437 Q 1014.276 958.538 1014.249 939.079 Q 994.702 939.112 977.098 939.140 Q 957.245 939.173 939.947 939.201 Q 921.156 939.232 902.796 939.262 Q 883.699 939.294 865.645 939.323 "></path>
    <path id="STROKE_20bd4cac-0b9c-4bdb-9502-7faab8d2ccfd" opacity="1.000" fill="none" stroke="#000000" stroke-width="3.500" stroke-opacity="1.000" stroke-linecap="round" stroke-linejoin="round" d="M 902.964 1060.333 L 902.964 1060.333 "></path>
    <path id="STROKE_57b87b19-677f-47d6-8bd1-6fd375a43160" opacity="1.000" fill="none" stroke="#000000" stroke-width="3.500" stroke-opacity="1.000" stroke-linecap="round" stroke-linejoin="round" d="M 865.813 1060.394 Q 866.133 1060.394 866.875 1060.393 L 865.813 1060.394 Q 883.336 1060.365 902.964 1060.333 Q 924.486 1060.298 940.115 1060.272 Q 959.094 1060.241 977.266 1060.211 Q 997.011 1060.179 1014.417 1060.150 Q 1014.446 1080.764 1014.473 1100.507 Q 1014.502 1121.253 1014.529 1140.864 Q 1014.558 1161.691 1014.585 1181.221 Q 995.488 1181.252 977.434 1181.282 Q 958.722 1181.313 940.284 1181.343 Q 921.012 1181.375 903.133 1181.404 Q 884.178 1181.435 865.982 1181.465 Q 865.952 1159.836 865.925 1141.108 Q 865.895 1119.347 865.869 1100.751 Q 865.841 1080.496 865.813 1060.394 Q 885.022 1060.363 902.964 1060.333 "></path>
    <path id="STROKE_54061879-d299-4598-9cb2-5c05ddf1474e" opacity="1.000" fill="none" stroke="#000000" stroke-width="3.500" stroke-opacity="1.000" stroke-linecap="round" stroke-linejoin="round" d="M 865.813 1060.394 Q 886.587 1060.360 902.964 1060.333 Q 921.788 1060.302 940.115 1060.272 Q 959.094 1060.241 977.266 1060.211 Q 996.978 1060.179 998.558 1060.176 Q 998.288 1060.177 997.546 1060.178 L 1014.417 1060.150 L 977.266 1060.211 Q 956.125 1060.246 940.115 1060.272 Q 920.304 1060.305 902.964 1060.333 Q 883.808 1060.365 865.813 1060.394 Q 868.403 1060.390 869.573 1060.388 L 865.813 1060.394 Q 874.228 1060.380 902.964 1060.333 Q 922.058 1060.302 940.115 1060.272 Q 960.308 1060.239 977.266 1060.211 L 968.875 1060.225 L 977.266 1060.211 L 967.189 1060.228 L 977.266 1060.211 L 965.705 1060.230 L 977.266 1060.211 L 964.963 1060.232 L 977.266 1060.211 Q 964.221 1060.233 963.951 1060.233 L 977.266 1060.211 Q 963.479 1060.234 963.209 1060.234 L 977.266 1060.211 L 962.736 1060.235 L 977.266 1060.211 "></path>
    <path id="STROKE_4bd6643e-df2a-4729-a123-64e7366a9456" opacity="1.000" fill="none" stroke="#000000" stroke-width="3.500" stroke-opacity="1.000" stroke-linecap="round" stroke-linejoin="round" d="M 865.645 939.323 Q 865.647 940.712 865.589 898.966 Q 865.561 878.452 865.533 858.610 Q 865.504 837.718 865.477 818.253 Q 884.222 818.222 902.628 818.192 Q 922.468 818.159 939.779 818.131 Q 958.909 818.099 976.929 818.070 Q 995.701 818.039 1014.081 818.009 Q 1014.112 840.821 1014.137 858.365 Q 1014.168 880.984 1014.193 898.722 Q 1014.221 919.360 1014.249 939.079 "></path>
    <path id="STROKE_9f713e29-3002-40e6-a48c-41225c520830" opacity="1.000" fill="none" stroke="#000000" stroke-width="3.500" stroke-opacity="1.000" stroke-linecap="round" stroke-linejoin="round" d="M 865.477 818.253 L 865.464 809.002 L 865.477 818.253 Q 865.507 840.266 865.533 858.610 Q 865.562 879.251 865.589 898.966 Q 865.618 920.023 865.645 939.323 Q 865.644 938.140 865.589 898.966 Q 865.559 877.653 865.533 858.610 Q 865.505 838.288 865.477 818.253 "></path>
    <path id="STROKE_96193926-b4ef-4dcb-9319-71e592fab6ba" opacity="1.000" fill="none" stroke="#000000" stroke-width="3.500" stroke-opacity="1.000" stroke-linecap="round" stroke-linejoin="round" d="M 915.587 844.329 L 915.513 846.164 Q 915.221 847.818 914.987 860.990 Q 914.752 874.162 915.225 901.817 Q 914.886 903.107 914.571 906.479 "></path>
    <path id="STROKE_676fb15e-7c8e-4098-ad5a-500af13df8c2" opacity="1.000" fill="none" stroke="#000000" stroke-width="3.500" stroke-opacity="1.000" stroke-linecap="round" stroke-linejoin="round" d="M 891.902 970.032 L 893.257 970.015 Q 894.658 969.493 903.058 970.574 Q 911.458 971.655 915.595 973.760 Q 919.732 975.865 920.964 977.119 Q 922.196 978.374 922.726 979.197 Q 923.257 980.021 923.561 981.149 Q 923.864 982.277 923.894 983.410 Q 923.924 984.544 918.938 992.968 Q 913.952 1001.392 906.203 1010.822 Q 898.455 1020.251 897.494 1021.895 Q 896.533 1023.540 896.221 1024.527 Q 895.910 1025.514 896.019 1027.700 Q 896.134 1028.704 904.412 1030.704 Q 912.689 1032.704 920.814 1032.089 Q 928.940 1031.475 934.854 1030.767 Q 940.769 1030.060 945.748 1029.164 Q 950.728 1028.269 959.543 1025.453 Q 959.857 1024.845 960.060 1023.997 Q 960.263 1023.149 960.443 1020.162 "></path>
    <path id="STROKE_e3c412d5-f5a3-4da5-854c-0c7cb7b6f53b" opacity="1.000" fill="none" stroke="#000000" stroke-width="3.500" stroke-opacity="1.000" stroke-linecap="round" stroke-linejoin="round" d="M 900.436 1086.744 Q 902.684 1086.942 908.641 1086.920 Q 914.597 1086.898 939.566 1095.426 Q 939.788 1095.692 939.511 1097.096 Q 939.234 1098.500 934.901 1104.166 Q 930.569 1109.831 916.013 1125.861 Q 923.520 1132.393 932.118 1141.860 Q 932.349 1143.516 928.697 1149.980 Q 925.046 1156.445 921.442 1159.277 Q 917.837 1162.109 915.169 1163.285 Q 912.502 1164.461 910.264 1165.097 Q 908.025 1165.734 906.638 1165.579 Q 905.250 1165.424 901.298 1166.271 "></path>
    <path id="STROKE_990b5bae-701b-4e9a-bd34-73c27a94182a" opacity="1.000" fill="none" stroke="#000000" stroke-width="3.500" stroke-opacity="1.000" stroke-linecap="round" stroke-linejoin="round" d="M 906.613 1203.840 L 906.358 1205.496 L 906.144 1208.286 Q 906.304 1209.792 907.692 1247.483 Q 907.915 1248.158 911.430 1249.984 Q 914.945 1251.809 918.062 1252.058 Q 921.179 1252.306 928.391 1251.017 Q 935.604 1249.728 939.214 1248.684 Q 942.823 1247.640 948.182 1245.781 Q 953.541 1243.921 961.570 1241.609 Q 961.896 1241.575 961.871 1240.918 Q 961.846 1240.261 961.691 1239.341 Q 961.536 1238.422 960.942 1234.634 "></path>
    <path id="STROKE_0353bc02-94b0-4f24-bdb6-2ef0f8fb6203" opacity="1.000" fill="none" stroke="#000000" stroke-width="3.500" stroke-opacity="1.000" stroke-linecap="round" stroke-linejoin="round" d="M 939.943 1201.237 Q 938.940 1206.529 938.847 1207.809 Q 938.753 1209.090 938.490 1231.129 Q 938.226 1253.169 938.462 1265.505 Q 938.699 1277.842 939.450 1285.028 L 940.069 1291.453 "></path>
  </g>
</svg>